<svg xmlns="http://www.w3.org/2000/svg" width="500" height="545.66" version="1"><path fill="#0e4096" d="M490 535.662H10V9.998h480v525.664z"/><path fill="#0e4096" d="M482.4193 529.1673H17.5807V16.475h464.8386v512.6923z"/><path fill="#001" d="M37.464 382.535V257.4282l14.3286-15.8663 32.1134 35.134v86.607l-32.1134 35.605-14.3286-16.373zM75.222 424.4l-14.763-15.8665 32.1315-35.6056h92.4504l31.679 35.605-14.311 15.867H75.222zM240.1673 81.3384V206.445l-14.7633 15.8673-31.6794-35.117v-86.607l31.6793-35.6048 14.763 16.355zm-46.4426 176.0898H83.906l-23.4472-25.4915L83.906 206.445h109.8186l22.995 25.4918-22.995 25.4915zm-8.684-166.4645l-92.3598.1628L60.423 55.648l14.7086-15.939 127.2775-.2353 14.311 15.8847-31.679 35.6054zM419.423 276.691l31.6973-35.1345 14.7448 15.8847v125.0884l-14.744 16.3732-31.697-35.6055V276.691zM263.1622 382.5296V257.4412l14.3287-15.8847 32.113 35.1345v86.6063l-32.113 35.6055-14.329-16.3732zm37.758 41.8646l-14.745-15.8668 32.1133-35.605h92.45l31.6975 35.605-14.3287 15.8668h-127.187zM465.8652 81.333v125.1068l-14.745 15.8845-31.6972-35.1345v-86.607l31.6973-35.6047 14.7448 16.355zM309.604 187.1898l-32.1133 35.1345-14.3288-15.8845V81.333l14.328-16.355 32.113 35.6048v86.607zm101.1344-96.2315h-92.45L286.175 55.3527 300.92 39.468h127.187l14.3288 15.8847-31.6974 35.6056z"/><path fill="#fff" d="M32.5228 377.6013V252.4947l14.3288-15.8664 32.1134 35.1162v86.607L46.8516 393.956l-14.3288-16.355zm37.758 41.8647l-14.745-15.8846 32.1135-35.6054H180.1l31.6786 35.6054-14.3106 15.8846H70.281zM235.2264 76.387v125.1062l-14.7634 15.885-31.6794-35.1166V95.637l31.6793-35.6055 14.763 16.3555zm-46.4427 176.1077H78.965L55.536 227.003l23.429-25.5098h109.8186l22.995 25.5097-22.995 25.491zM180.1 86.0117l-92.3603.181-32.24-35.4784L70.1904 34.775l127.2775-.2352 14.31 15.8846L180.1 86.0118zm234.391 185.7345l31.679-35.1346 14.7627 15.8847V377.603L446.17 393.958l-31.679-35.6056v-86.6062zM258.23 377.603V252.4962l14.3286-15.8847 32.1134 35.1346v86.607l-32.1134 35.606-14.3286-16.355zm37.7582 41.8648l-14.7632-15.8853 32.1314-35.6047h92.45l31.6792 35.6047-14.3104 15.8853h-127.187zM460.9327 76.388v125.107L446.17 217.3795l-31.679-35.1344V95.638l31.679-35.6048 14.7627 16.355zM304.672 182.245l-32.1134 35.1345-14.3286-15.8847V76.388l14.3286-16.3548L304.672 95.638v86.607zm101.1343-96.2316h-92.45L281.225 50.426l14.7632-15.8845h127.187l14.3104 15.8845-31.6793 35.5874zM36.617 507.8944l7.255-.398v1.1578h3.5638l2.4967-.38 7.1285-.7777v-2.0624l1.0855-3.329-2.0263-2.08-2.6232-.633.488-.506v-1.176l-.832-1.538V482.53l-1.0854-6.694 1.4294-3.8535h1.0673l.4704-3.6185 2.0263-2.6963 2.9853-1.7908.7056-.525.361.525 2.967 1.013 2.497.777.597 1.538 1.067 1.158.47-.634.362.633v.904l-2.859 3.474.362.398v3.473l1.067 1.556.597.488-.597.651-1.9 4.776 1.9 3.854-1.067 2.315.596.38-.959 1.157.362 1.665 1.067 2.714-1.067 2.316h-.362l.362.398-1.43 1.14-1.538 1.556-.363-.398-1.664.922-1.538.633-.362 2.063 1.068 2.315 2.496 1.157.362-1.158 7.128 1.158.959-1.158h1.665l3.328.38v.778l.597-1.158 8.684.38h6.893l3.202.778 2.496-1.158 1.429-3.22-.597-2.714-2.497-1.157v.524l-.471.633-2.858-.633-1.086-3.221v-12.61l-1.538-4.505 1.539-5.935.379-3.203.706-6.568-1.086-1.158-.706-4.378-1.411-1.031.579-.525-2.478-1.14-4.179-1.538-2.497.38-4.506 1.664v1.158l-.597.398-1.9 1.14-2.153-.507-.941 1.157h-.959l-4.994-6.187-1.664.796-.833-1.158-.705.362h-1.79l-2.606 2.334-.597-.652-.488 1.791-3.076 2.062-.832-1.14-.724.633-.941-1.556-4.053-2.298H46l-1.068-1.176-.47.796-1.067-1.158-2.515.362-3.908 3.999.3624.397.578 1.791h.833l.723.525v.38l3.565 2.315 1.8996-1.158 2.026 2.316.47 2.063.598.633-1.068 2.714-.959 3.854 1.4286 2.062v3.853l-.47 4.396-.597 2.696v8.883l-.832 1.664.471.381-1.068 1.682H43.4l-2.0265-.506-2.6232 2.297-.941.6513-1.0855-1.14-1.773 3.329 1.665 3.8714zm46.858-42.2272l.8147.905h.597l.4883-.5244.941 2.7136 1.0673 1.6642-1.0673 4.3784-.3442.6332.8146 1.176-1.8998 4.252 1.0852 7.0738v1.6824l-2.1527 2.696.471 5.011.597 1.5564v.5064l-2.135 1.1578h-1.9l-1.664 1.0314h-.361l-1.068-2.1892-2.497.6333-1.556.5245v-.5245l-.343-.6333v-1.6824l.343-.3805-2.967-3.8713 1.538-3.2024v-1.791l.362-1.6824.724-3.094v-.778l.344-.38-2.497-3.8714 1.43-3.2206v-2.2974l2.153-4.3784h.471l1.429-1.5558-.47-.6333h1.067l.471-2.0627v-1.664l1.43-.6516 3.564 1.6824.724 1.7908zm36.0182-12.7506l-5.12-1.0132v1.0132h-1.4294l-.4704 3.9984.959 1.556.5968.3797-.5967.76 2.008 2.7136h2.4967l1.0673-1.1578h2.9854l1.537 1.6827.959 1.5377 3.202-3.221 1.429-.38 1.556 1.538v.525l-.489 2.171-.579 2.84h-.489l.488 9.788.579 2.189-1.067 8.231.488.507-1.556 2.713-.362-.525h-.597l-.471.905h1.067l.832 1.935v3.6h-5.464l-7.128-.525-1.556 1.157h-2.84l-2.623 1.682-.598 3.872 1.068 3.076 1.429.778 2.623.38.597-.38.344.38v.506l8.684.669.47-.67.959 1.176 1.537 1.031 3.094-1.538h4.396l2.624-1.176 1.067 1.176.597-.67h6.893l2.153-.507 1.882 1.176v.507l4.993-.507 2.623-1.176.959-2.189.706-2.044-1.068-1.176v-.525l.361-1.774-1.43-2.714-2.985-.525h-7.129l-2.967.525-2.497.633-1.068-1.157v-.38l-1.086-3.474-.344-2.696-.597-8.25.941-2.044v-3.872l-.344-5.029v-12.46l-2.153-4.379-3.907-.652-1.068 1.158-.489-.507h-1.067l-4.632-.651-4.397-.525v-.38l-.597.379zm18.436-17.875l-4.0527-2.3158-2.4967 1.158-.5974.38h-.4704l-.5968-.38-1.4295 1.5376h-.4704l-1.429 2.696-.7055-.38-.127.253.3622.6515.4704-.525v1.682l.3617 6.187 3.564.38h4.397l.706-.38.362.38h.724l3.329-2.714-.488-4.758-1.41-3.854zm47.0696 17.875v1.0313l2.1353 2.062h1.918l.58.778h1.067v1.556h4.415l3.203-2.714h1.43l.471-.525 3.094-2.189 1.556-.507.941.905h.959l.597-.398v-.507l2.479.905.489-.398h.941l3.691 3.093h.959l4.035 6.694h-.598v3.347l.598 3.22 1.429 3.22v1.158l-2.026 2.696.598 23.447 2.497 1.773.471-.633 3.094 6.567-2.008 1.158-.488.524-1.665-1.683h-6.893l-.724.525-6.531.633-.941-1.158h-4.052l-1.067-1.538.596-4.397.471.525.597-.525 1.9-.634 8.214-.38.814-1.158-.344-.507h-.47l.814-1.176-.344-.633-1.538-5.536.471-3.094 1.411-1.664-1.411-2.189.598-1.683v-1.158l-1.068-.362.471-3.89.597-4.379-1.665-2.696v-2.695l-4.397-3.872-1.556-.507h-1.664l-1.429 1.538-3.564 2.062h-1.9l-1.067 2.315.47.525-2.968 5.011v1.538l-.47-.506h-1.085l-.941 1.665.361 1.556-.361-.398-2.985 7.472.362 2.696.488 2.334.579 3.22-1.43 1.14v2.189l1.43 2.84 7.616.379 1.067-1.14.362.76h1.067l-2.135 1.013-.958 4.396-2.967 3.22-2.497-1.158-1.555.633-1.43.524v-.524h-9.264l-.47-.633h-.959l-1.067 1.158-1.538-1.1578-2.515.633-.344.524v.6515l-1.556-1.176-1.6642-1.538-.4707.38H168V504.8h.361l1.067-2.714 1.538-1.537h2.858l3.221-1.664 1.429.507.47-1.6825 1.067-2.189v-1.6644l-.4708-.398 1.5373-1.917-1.0672-1.538.597.633v-7.2l-.597-.525-.471-1.519V470.43l-.597-.6324 1.067-1.05v-1.791l-2.967-.38-1.429-.525v-1.791l-5.12-3.6006-.597-2.3162-.47-2.334 2.967-3.0934 4.65 1.5375.47-.507v.506l2.497.652 2.496-2.189h.597l.47-1.665.362 1.664H185zm67.2207 2.7154l-.7238.6516 2.1534 1.1396 1.068.9224-.596.6332.941 2.063-1.411 5.536v20.2083l.471 8.884 3.094 2.044.471-.38v.38l1.43.778 2.135.398 1.9-1.176.597.778h1.43l4.649-5.029 2.606-3.202.362-4.649 2.135-.886v-2.189h.362l1.538-3.22-.469-3.473 1.067-1.031v-3.221l.471-3.853 2.497-2.841-2.497-2.695-9.154-.398-2.026-1.139.598-3.872 4.053-1.682 6.061.525 1.899 1.158 1.43-.506h3.202l1.43 1.664v16.337l.471 5.916.597 7.744-.597-.398v2.063l1.085 4.886v.524l2.497 1.158h1.411l1.086 1.538 1.067 1.176h2.497l1.067 1.14H298l.47 1.537v4.396l-.471.651v.887h-.362l-.5977 1.158h-2.605l-.362-.38h-1.538l-.597.38-1.918 1.158h-1.647v-.38l-4.414-.778-2.479-1.158h-4.0526v-.886l-1.6645-1.81-5.463.634v.525l-2.153 1.158h-.344l-.488-.507-2.135 1.664-6.423 1.538-.7055.525-3.9252-3.219H251.5v-1.158l-1.899-.525h-2.026l.3613-.633-.832-.905-.5975-7.725-1.0673-4.378 1.0676-2.189V469.28l-1.067-2.695-.344-2.8226-1.193-1.683-2.732-.271-1.32.905-1.791-.778-1.647-3.22-.127-2.424.959-2.588 1.773-.904 1.321.2713 2.606-.5246.236.651 1.43 1.918.362-.38-.361.253-.47-.525.471-.506.362.778.471-1.14 4.162 2.045h2.623zm69.9913-22.7924h1.6646l.832 1.5377v2.081l1.6647 1.1397h.471l-2.496 5.4096 1.429 4.378-1.429 3.492 1.429 1.5376h9.625l2.968-.398v-.7596l1.068 1.1576h2.515l2.479 2.3156-.343 3.6005-.597.6516v1.157l-1.899.887-1.664-.362h-5.12l-.362.362-6.531-.362-1.538 1.52v2.713l-2.026 1.158-1.068 1.157 1.429 4.758v5.011l2.497 2.696-1.429 1.194-1.429 1.664v1.158l2.027 1.031h1.899l-.361.506.362.379-1.067 2.84-.832 2.189.832 1.682 1.068 1.14h2.135l1.067-5.012.362-1.665-1.067-1.177.706-2.695h.851v4.631l1.05.905h1.067l1.429-2.841h1.086l3.908-4.74 4.053 1.14h.597l.471 2.714v5.916l-.47.524v1.791h-.597l-.489.904-2.008 2.298.597.398h-.597l-.832 3.474v.525l-2.153 1.013v1.682l-1.067 1.158.597.38-4.161.651-1.429 1.176-1.049 2.044h-.85l-.706.778-1.429-1.936-6.061.778-1.067 1.158-1.917-2.316.362-2.334-3.908-2.695-1.556-4.759h-.597l-.344-.778v-1.537l1.411-1.556-1.067-5.917 1.068-6.169.597-9.408.488-5.392v-5.554l-1.556-.887-2.496.524-2.497.362h-4.994l-1.0672 1.158-2.153-1.52-.471.362-.941-.887h-1.067l.579-.651-.579-.506v-5.03l3.093-2.695 1.049.759h1.556l.361-1.14 5.102.38 2.497 1.664 2.497-1.664V434.9l.597-1.6647 2.624-1.5376 2.841.5063.489.633zm60.1628 22.7924l-7.1284-.5244-1.0855 1.682-1.0673-1.1577-1.4112 1.791-.4886-.634-2.4967 1.556v1.791l-3.926 2.062-3.203 2.695v1.158l-1.9 4.378h-.597v4.378l-1.067 2.171-1.43.525v2.188l2.008 3.22.488 6.187.597 3.853 1.429 2.714 2.605 2.044.362 2.84.705.633 1.429.904v1.158h1.068l.361.651v.904l3.564 2.696 7.02.778 1.664 1.158 1.429.38 1.067-1.158h2.497l1.537-1.538 6.079-1.158 1.538-2.063 2.858-2.334 1.067-2.171 2.135-2.822.362-2.714-2.026-2.696-1.899.633-3.221 3.22-2.479 1.556-1.43 3.456-1.556 1.158h-3.908l-2.623 1.556-.598-.652v-.525h-2.967l-1.429-1.538-5.121-2.316v-.38l-3.076-1.664-1.918-3.872.362-.634-1.43-2.063 1.067-1.158-1.429-2.714 1.428-1.538.363.38 1.555.651 3.075-1.032 6.549-.778 1.538 1.158v1.538h1.067l.362-.38 1.068-1.538 4.993-1.664 3.564 2.695 2.967-2.189.724-.506h1.429l1.068.506v.38h3.925l.47-2.714-.47-.507v-.38l.47-2.334h.597v-1.537l.47-.634-1.068-1.682.598-.38-1.43-1.664-2.135-4.5048v-1.683l-2.967-2.696-.958-2.713h-1.538l-.597-.507v-1.031h-1.556l-.941-1.158-7.019-1.158zm-7.1284 23.0314l-2.4967-.4888h-1.556v-.669l-.9407-.5252-1.0855-2.6956.5975-.5067 1.4288-1.03s1.556-2.569 1.556-2.84l.3438-2.695v-.633l1.0673-.905-.3433-2.316 1.4288-1.556h2.135v.398l.3617.651h1.067v.507l.47.507 1.067-1.013 2.858-.651v.651l.724.507h.344l.596-1.158.47 1.664 2.497 3.872-.344 8.883h-2.623l-.597-.778-1.068 1.665h-.832l-1.067 1.158-1.43-1.683-.959-.362-1.176.634-2.497 1.412zm59.0326-24.173l1.0674-1.1223 3.5462 1.123h2.949l2.4785 2.262 3.546.38 1.067 1.628h1.067l1.882-3.147h.597l.832-1.121 2.117.507.361.615h.705l-.471-.488.596-.38.235.254-.362.615v1.14l.361.38 1.411 3.763-1.411 4.27-.362.489.959 1.013h-.598v1.629l1.068 2.641-1.068 1.756h-2.478l.579-.633-3.546-3.763-1.049-3.13-6.514-5.282-3.076.38v-.38l-2.479-.488-2.605-.633h-2.478l-2.479.634-5.083 4.252-.833 1.013 1.538 2.008v1.121h-.706l-.344-.38-1.068 1.52 1.067 1.121v2.009l2.478 2.261h6.025l2.606.38 4.957.615v.506l2.478 1.502 1.9-.994 5.663.633 3.546 3.13h1.899l1.068 3.256 2.949 3.148v4.27l-.47 3.763v1.502l-1.43 1.502-2.117 2.262v1.122l-.362-.615-4.613 4.885-5.084 1.013-.343.507-3.673 1.122-.941 1.122-.471-.742-1.411 1.122-3.202-2.624-.344.616h-1.539l-1.067-1.122-.597.506-2.479-1.519-4.378.379-5.663 1.755h-1.537l-2.841-3.763v-4.143l.363-5.392.705-2.261.343-.38-.344-.615-.705-2.008v-1.882l.705-.887.814-1.755 2.497-.38 2.478 2.642v1.121l2.479 2.008h1.067l-.362.634 2.479 1.122h1.429l.47 1.519-.832 1.629 2.478 1.501 1.429-.5064 1.538-.995 2.0082 2.135-.598 2.008.597.742h.94l.5976-1.881h3.5452l.815 1.14h.597l1.538-1.519-.4705-1.6285.47-.615 1.4107 1.755 2.135-.634.362-1.5012.706-3.763 1.882-1.14.597-.506v-.362l-.597-.76-.47-1.501-4.017-3.148-2.008-.615-2.605-2.008-.344.38h-1.664l-.814-1.013-.724.634-4.36.868-2.008-.8673-5.084-.634-4.6136-3.763h-.832l-.5787.633-2.6055-3.763-.959-4.269-.47-3.275v-1.628l4.035-6.893 1.41-.379 8.16-3.3836 2.479.7426.47.38z"/></svg>