<?xml version="1.0" encoding="utf-8"?>
<!-- Generator: Adobe Illustrator 19.2.0, SVG Export Plug-In . SVG Version: 6.00 Build 0)  -->
<!DOCTYPE svg PUBLIC "-//W3C//DTD SVG 1.1//EN" "http://www.w3.org/Graphics/SVG/1.1/DTD/svg11.dtd">
<svg height="134px" id="logo" style="enable-background:new 0 0 286 134;" version="1.1" viewBox="0 0 286 134" width="286px" x="0px" xml:space="preserve" xmlns:xlink="http://www.w3.org/1999/xlink" xmlns="http://www.w3.org/2000/svg" y="0px">
  <title>Alternatives Economiques</title>
  <g>
    <rect class="st0" fill="#FF003C" height="135.3" width="286" y="-1.3"/>
  </g>
  <g fill="#FFFFFF">
    <g id="economiques">
      <path class="st1" d="M11.8,71.9h20.8v6.5H18.7v6.7H32v6.5H18.7v7.6h13.9v6.4H11.8V71.9z"/>
      <path class="st1" d="M35.2,92.6c0-8.2,2-13.3,11.2-13.3c3.4,0,5.4,0.5,7.1,1.4l-3,6c-1-0.5-2.2-0.9-3.8-0.9c-3.5,0-4.6,1.9-4.6,7.1
			c0,5.2,1,7.1,4.7,7.1c1.7,0,3-0.5,4.3-1l2.6,5.2c-2.7,1.3-4.7,1.8-7.8,1.8C37.3,105.9,35.2,101,35.2,92.6z"/>
      <path class="st1" d="M54.7,92.6c0-8,2.2-13.3,11.4-13.3c9.2,0,11.3,5.3,11.3,13.3c0,8.3-2.1,13.4-11.3,13.4
			C57,106,54.7,100.7,54.7,92.6z M70.5,92.8c0-4.5-0.5-7.1-4.4-7.1c-4,0-4.4,2.6-4.4,7.1c0,4.5,0.5,7.1,4.4,7.1
			C70,100,70.5,97.3,70.5,92.8z"/>
      <path class="st1" d="M80.8,80.2l5.5-0.5l0.5,2c1.2-1.5,3.4-2.5,7.8-2.5c6.3,0,7.6,4,7.6,9.4v16.9h-6.9V90.4c0-3-0.4-4.5-3.3-4.5
			c-3.7,0-4.3,1.8-4.3,5.5v14.2h-6.9V80.2z"/>
      <path class="st1"
        d="M105.3,92.6c0-8,2.2-13.3,11.4-13.3c9.2,0,11.3,5.3,11.3,13.3c0,8.3-2.1,13.4-11.3,13.4
			C107.6,106,105.3,100.7,105.3,92.6z M121.1,92.8c0-4.5-0.5-7.1-4.4-7.1c-4,0-4.4,2.6-4.4,7.1c0,4.5,0.5,7.1,4.4,7.1
			C120.7,100,121.1,97.3,121.1,92.8z"/>
      <path class="st1"
        d="M131.4,80.2l5.5-0.5l0.5,2c1.2-1.5,3.2-2.5,7.6-2.5c4.1,0,5.5,1.1,6,2.5c1.3-1.5,3.5-2.5,8-2.5
			c6.4,0,7.2,4,7.2,9.4v16.9h-6.8V90.4c0-3-0.2-4.5-3.1-4.5c-3.5,0-4.1,1.6-4.1,5.5v14.2h-6.8V90.4c0-3-0.2-4.5-3.1-4.5
			c-3.5,0-4.1,1.7-4.1,5.5v14.2h-6.8V80.2z"/>
      <path class="st1" d="M170.5,71.2h6.9v6.2h-6.9V71.2z M170.5,79.8h6.9v25.8h-6.9V79.8z"/>
      <path class="st1"
        d="M196.6,103.6c-1.3,1.6-3.4,2.3-7,2.3c-7.6,0-8.6-6.2-8.6-13.3c0-7.2,1.2-13.2,8.9-13.2c4.7,0,6.3,0.8,7.5,2.1
			l1-1.9l5,0.5v32.7h-6.9V103.6z M196.5,92.7c0-4.5-0.5-7-4.6-7c-3.5,0-4,2.3-4,7c0,4.7,0.5,7.2,4,7.2
			C195.9,99.9,196.5,97.4,196.5,92.7z"/>
      <path class="st1" d="M207.6,95V79.8h6.9v14.9c0,3.6,0.1,5.2,3.7,5.2c3.5,0,3.7-1.6,3.7-5.2V79.8h6.8V95c0,7.8-2,10.9-10.6,10.9
			C209.8,105.9,207.6,102.8,207.6,95z"/>
      <path class="st1"
        d="M231.9,92.6c0-8.2,2.4-13.3,11.1-13.3c10.2,0,9.9,6.9,9.7,16.4h-14.2c0.3,3,1.3,4.3,4.7,4.3
			c3.4,0,5.1-0.7,6.8-1.5l2.6,5.2c-2.5,1.3-5.4,2.1-9.7,2.1C233.7,105.9,231.9,101,231.9,92.6z M238.4,90.4h8.2
			c-0.1-3.4-0.3-5.1-3.9-5.1C239.4,85.3,238.6,87,238.4,90.4z"/>
      <path class="st1"
        d="M254.5,104l2.6-5.3c1.9,0.9,4.7,1.7,7.5,1.7c2,0,2.9-0.6,2.9-2c0-1.5-0.9-1.9-5-3.3c-4.7-1.6-7-3.1-7-7.8
			c0-5.9,4-7.9,9.6-7.9c3.7,0,5.7,0.4,8,1.4l-2.6,5.7c-1.5-0.6-3.5-1.1-5.6-1.1c-2.2,0-2.8,0.6-2.8,1.8c0,1.2,0.8,1.7,4.5,2.9
			c5.2,1.7,7.5,3.2,7.5,8.2c0,5.3-3.3,7.6-9.3,7.6C260.8,105.9,257.1,105.4,254.5,104z"/>
    </g>
    <g id="alternatives">
      <path class="st1" d="M25.5,23.1h4.6l13.7,44.8h-4.6l-3.1-10.2H19.3l-3,10.2h-4.4L25.5,23.1z M35,53.6l-7.2-24l-7.3,24H35z"/>
      <path class="st1" d="M53.8,68c-5.7,0-7-2-7-7.2v-39h4.4v38.6c0,2.8,0.1,3.7,4.1,3.7v3.9C55,68,54.7,68,53.8,68z"/>
      <path class="st1" d="M55.9,34.8h5l0.7-9.2l3.6-0.8v10h7.9v3.8h-7.9v20.5c0,3.1,0.5,4.8,4.2,4.8h3.7v3.9C72.6,68,69.6,68,69.1,68
			c-6.8,0-8.2-2.7-8.2-8.4v-21h-5V34.8z"/>
      <path class="st1"
        d="M75.6,51.3c0-10.2,2.2-17,12.5-17c11,0,11.1,7.1,11,18.9H79.8c0.2,7.1,1.6,11.4,8.5,11.4c4.3,0,6.4-1,8.3-1.9
			l1.7,3.4c-2.3,1.3-5.3,2.3-10.2,2.3C77.4,68.3,75.6,61.6,75.6,51.3z M79.8,49.1H95c-0.2-6.5-0.1-10.9-7-10.9
			C81.5,38.2,80,42.4,79.8,49.1z"/>
      <path class="st1" d="M103.2,35.1l3.4-0.2l0.5,4c1.2-2.3,3.7-4.3,9.2-4.3v4.1c-8.3,0.2-8.7,6.4-8.7,12.8v16.4h-4.4V35.1z"/>
      <path class="st1" d="M119.4,35.1l3.5-0.2l0.4,3.5c1.3-2.3,3.8-4,10-4c8.6,0,9.5,4.9,9.5,12.1v21.5h-4.3V47.3c0-5.8-0.6-8.9-6.6-8.9
			c-7,0-8.1,4.1-8.1,12.4v17.1h-4.4V35.1z"/>
      <path class="st1"
        d="M146.6,58c0-9.7,5.9-12.1,17.1-12.1h1.4c-0.1-5-1.1-7.6-6.4-7.6c-3.4,0-6.2,0.8-8.1,1.8l-1.9-3.6
			c2.5-1.3,6-2.2,10.3-2.2c8.7,0,10.3,3.8,10.3,11.8v14.5c0,2.7,0.2,3.4,2.7,3.4v3.9c-0.4,0.1-0.8,0.1-1.1,0.1
			c-3.7,0-4.8-0.9-5.3-3.4c-2,2.9-5.3,3.7-9.5,3.7C149.3,68.3,146.6,64.6,146.6,58z M165.1,55.1v-5.4h-1.4c-8.9,0-12.9,1.1-12.9,8
			c0,5.4,2.3,6.9,6.2,6.9C161.2,64.6,165.1,62.6,165.1,55.1z"/>
      <path class="st1" d="M173.1,34.8h5l0.7-9.2l3.6-0.8v10h7.9v3.8h-7.9v20.5c0,3.1,0.5,4.8,4.2,4.8h3.7v3.9c-0.6,0.1-3.6,0.1-4.1,0.1
			c-6.8,0-8.2-2.7-8.2-8.4v-21h-5V34.8z"/>
      <path class="st1" d="M194.4,24.1h4.4v6.2h-4.4V24.1z M194.4,34.8h4.4v33.1h-4.4V34.8z"/>
      <path class="st1" d="M202,34.8h4.5l8.2,27.4l8.2-27.4h4.3l-10.3,33.3h-4.6L202,34.8z"/>
      <path class="st1"
        d="M228.2,51.3c0-10.2,2.2-17,12.5-17c11,0,11.1,7.1,11,18.9h-19.3c0.2,7.1,1.6,11.4,8.5,11.4
			c4.3,0,6.4-1,8.3-1.9l1.7,3.4c-2.3,1.3-5.3,2.3-10.2,2.3C230,68.3,228.2,61.6,228.2,51.3z M232.4,49.1h15.2
			c-0.2-6.5-0.1-10.9-7-10.9C234.2,38.2,232.7,42.4,232.4,49.1z"/>
      <path class="st1"
        d="M254,66.2l1.7-3.5c2.1,1.1,5,2,8.5,2c3.9,0,6.2-1.6,6.2-5.1c0-3.5-2.2-4.8-7-7.1c-5.3-2.5-8.5-4.5-8.5-9.7
			c0-5.7,3.5-8.5,9.8-8.5c4,0,6.3,0.6,8.5,1.6l-1.7,3.7c-1.7-0.7-3.9-1.4-6.9-1.4c-4,0-5.5,1.7-5.5,4.6c0,2.9,2,4.2,6.7,6.4
			c5.4,2.5,8.6,4.6,8.6,10.4c0,5.9-3.9,8.8-10.3,8.8C260.1,68.3,256.7,67.6,254,66.2z"/>
    </g>
  </g>
</svg>
