<?xml version="1.0" encoding="UTF-8" standalone="no"?>
<!-- Created with Inkscape (http://www.inkscape.org/) -->

<svg
   xmlns:dc="http://purl.org/dc/elements/1.1/"
   xmlns:cc="http://creativecommons.org/ns#"
   xmlns:rdf="http://www.w3.org/1999/02/22-rdf-syntax-ns#"
   xmlns:svg="http://www.w3.org/2000/svg"
   xmlns="http://www.w3.org/2000/svg"
   xmlns:sodipodi="http://sodipodi.sourceforge.net/DTD/sodipodi-0.dtd"
   xmlns:inkscape="http://www.inkscape.org/namespaces/inkscape"
   width="299.99515"
   height="300"
   id="svg2"
   version="1.1"
   inkscape:version="0.47 r22583">
  <g
     inkscape:label="Layer 1"
     inkscape:groupmode="layer"
     id="layer1"
     transform="translate(-351.77747,-426.83452)">
    <path
       id="path4169"
       d="m 351.77747,726.83452 251.60936,0 0,-251.60931 -251.60936,0 z"
       style="fill:#231f20;fill-rule:nonzero;stroke:none" />
    <path
       id="path4171"
       d="m 389.06925,662.87049 11.10381,-0.85712 -0.01,16.43531 9.33626,-0.005 c 5.87395,0 11.38946,1.70938 11.96087,8.89075 0.43583,5.44292 -3.00716,9.08929 -6.03849,9.64618 -3.7287,0 -2.61498,0.0145 -7.5785,0.0145 1.64164,0 6.4841,-3.00232 5.39934,-7.12325 -1.00239,-3.80133 -4.36301,-3.86913 -7.5106,-4.07251 -3.15249,-0.1937 -16.49347,-0.87649 -16.49347,-0.87649 l -0.16948,-22.05255"
       style="fill:#ffffff;fill-rule:nonzero;stroke:none" />
    <path
       id="path4173"
       d="m 373.8494,682.865 c -2.01441,2.4406 -4.02892,6.16929 -2.87153,10.33381 3.44778,11.65095 21.98956,16.7888 29.78592,17.09872 l -0.91039,-13.63152 c 0,0 -12.66302,1.6658 -19.05986,-5.041 -2.71662,-2.84253 -2.16943,-5.83517 -0.12591,-8.42104 -2.39702,-0.11137 -5.20559,-0.26633 -6.81818,-0.33897"
       style="fill:#ffffff;fill-rule:nonzero;stroke:none" />
    <path
       id="path4175"
       d="m 400.16332,678.44384 251.60931,0 0,-251.60932 -251.60931,0 z"
       style="fill:#773594;fill-rule:nonzero;stroke:none" />
    <path
       id="path4177"
       d="m 545.53398,617.0463 -5.57367,0 0,-14.45474 -2.24206,0 0,-4.32916 2.24206,0 c 0,-1.6658 -0.0775,-3.68026 0.87164,-5.11847 1.17672,-1.74813 3.3752,-2.5423 5.42356,-2.5423 0.45519,0 2.01446,0.0339 3.18633,0.26634 l 0,4.28558 c -0.8329,-0.11138 -1.24935,-0.11138 -2.12099,-0.11138 -1.78687,0 -1.78687,1.17187 -1.78687,2.80378 l 0,0.41645 3.41878,0 0,4.32916 -3.41878,0 0,14.45474"
       style="fill:#231f20;fill-rule:nonzero;stroke:none" />
    <path
       id="path4179"
       d="m 556.34714,597.77332 0,3.60278 0.0775,0 c 0.56657,-2.04836 1.70939,-4.17419 4.13546,-3.98534 l 0.94917,0.0775 0,5.57851 c -4.24683,-0.22759 -4.7795,3.22508 -4.7795,6.63901 l 0,7.36054 -5.57857,0 0,-19.27298 5.19596,0"
       style="fill:#231f20;fill-rule:nonzero;stroke:none" />
    <path
       id="path4181"
       d="m 574.14323,607.82626 c -2.12584,0.2276 -6.03371,0.72153 -6.03371,3.53015 0,1.51569 0.91039,2.54229 2.46966,2.54229 1.13797,0 2.15973,-0.61015 2.80378,-1.59317 0.79896,-1.21545 0.76027,-2.35343 0.76027,-3.719 l 0,-0.76027 z m 0.53267,9.22004 c -0.2276,-0.98786 -0.30508,-2.00962 -0.26634,-2.99748 -1.59317,2.27595 -3.26382,3.37519 -6.14508,3.37519 -3.41877,0 -6.07244,-1.82076 -6.07244,-5.46229 0,-2.84737 1.78202,-4.77951 4.32431,-5.72863 2.20332,-0.8329 5.27344,-0.98786 7.62688,-1.21546 l 0,-0.45519 c 0,-0.8329 0.0775,-1.82076 -0.49393,-2.54229 -0.49393,-0.64405 -1.43821,-0.91038 -2.27596,-0.91038 -1.78202,0 -3.33645,0.91038 -3.33645,2.80863 l -5.27344,-0.49394 c 0.56657,-4.66813 5.11848,-6.0337 9.1813,-6.0337 1.97088,0 4.55191,0.45519 6.10634,1.74813 1.97572,1.59317 1.78203,3.71901 1.78203,6.0337 l 0,8.98761 c 0,0.98786 0.0775,1.93698 0.38255,2.8861 l -5.53977,0"
       style="fill:#231f20;fill-rule:nonzero;stroke:none" />
    <path
       id="path4183"
       d="m 582.68043,597.77332 5.27349,0 0,3.25897 0.0775,0 c 1.13798,-2.46481 2.73114,-3.64153 5.53977,-3.64153 1.82077,0 3.60284,0.57141 4.74082,2.12584 1.06534,1.44305 1.06534,3.86913 1.06534,5.61725 l 0,11.91245 -5.57852,0 0,-10.35802 c 0,-1.97572 0.26634,-4.85698 -2.54229,-4.85698 -0.98786,0 -1.89829,0.56656 -2.35343,1.44305 -0.57146,1.09924 -0.64405,2.19847 -0.64405,3.41393 l 0,10.35802 -5.57856,0 0,-19.27298"
       style="fill:#231f20;fill-rule:nonzero;stroke:none" />
    <path
       id="path4185"
       d="m 613.94335,605.09511 c 0,-1.74812 -0.91039,-3.45267 -2.91996,-3.45267 -3.07496,0 -3.45267,3.03622 -3.45267,5.50103 0,2.35344 0.0387,5.68989 3.22508,5.68989 1.97572,0 2.95874,-1.55443 3.14759,-3.33645 l 5.31218,0.30023 c -0.45519,4.78435 -4.05798,7.62687 -8.76485,7.62687 -5.84,0 -9.29268,-4.13546 -9.29268,-9.82535 0,-5.91748 3.56405,-10.2079 9.6365,-10.2079 4.47443,0 8.04332,2.88611 8.42103,7.39928 l -5.31218,0.30507"
       style="fill:#231f20;fill-rule:nonzero;stroke:none" />
    <path
       id="path4187"
       d="m 633.25512,605.05637 c -0.11138,-2.0871 -0.79416,-4.02408 -3.22513,-4.02408 -2.46481,0 -3.41393,1.82561 -3.60279,4.02408 l 6.82787,0 z m -6.78918,3.30256 -0.0387,0.94912 c 0,2.27596 1.2881,4.13546 3.71901,4.13546 1.70455,0 3.41398,-1.25419 3.41398,-3.03622 l 5.16207,0.37771 c 0,0.94912 -2.24206,6.63901 -8.76485,6.63901 -5.76737,0 -9.52512,-4.01924 -9.52512,-9.74787 0,-5.69473 3.37519,-10.28538 9.375,-10.28538 2.69241,0 5.46229,1.21546 7.05546,3.41393 1.59317,2.20332 2.00962,4.93447 1.97088,7.55424 l -12.36764,0"
       style="fill:#231f20;fill-rule:nonzero;stroke:none" />
    <path
       id="path4189"
       d="m 439.21296,641.64599 c 0,-3.60763 -1.87892,-7.13778 -6.03855,-7.13778 -6.35815,0 -7.14263,6.27582 -7.14263,11.37493 0,4.86667 0.0775,11.77202 6.66802,11.77202 4.08219,0 6.12087,-3.21539 6.51316,-6.90535 l 10.98754,0.62952 c -0.93944,9.88346 -8.39688,15.77189 -18.12538,15.77189 -12.08677,0 -19.22456,-8.55662 -19.22456,-20.3238 0,-12.24173 7.37507,-21.10828 19.93156,-21.10828 9.25878,0 16.63385,5.96107 17.41833,15.30217 l -10.98754,0.62468"
       style="fill:#ffffff;fill-rule:nonzero;stroke:none" />
    <path
       id="path4191"
       d="m 477.34732,666.3619 0,-6.82302 -0.15496,0 c -1.88372,5.02163 -5.96586,7.61234 -11.37978,7.61234 -3.99987,0 -7.45254,-0.8668 -9.7285,-4.47443 -2.19847,-3.45267 -1.96119,-7.22011 -1.96119,-11.06502 l 0,-25.10815 11.53473,0 0,25.10815 c 0,3.21539 0.31476,6.27583 4.39211,6.27583 2.59072,0 4.7892,-1.48664 5.80611,-3.84007 0.78448,-1.80624 0.62952,-4.08219 0.62952,-6.12087 l 0,-21.42304 11.53474,0 0,39.85828 -10.67278,0"
       style="fill:#ffffff;fill-rule:nonzero;stroke:none" />
    <path
       id="path4193"
       d="m 493.58888,666.3619 11.53425,0 0,-53.82877 -11.53425,0 z"
       style="fill:#ffffff;fill-rule:nonzero;stroke:none" />
    <path
       id="path4195"
       d="m 535.72795,635.60745 -8.55662,0 0,15.84936 c 0,5.25407 0.39224,6.43079 5.33639,6.43079 1.02176,0 2.51323,-0.15496 3.84491,-0.30992 l 0,8.70674 c -2.27596,0.55204 -5.09911,0.8668 -7.22011,0.8668 -3.29287,0 -7.68498,-0.47456 -10.27569,-2.59071 -3.2154,-2.6682 -3.2154,-7.45739 -3.2154,-11.37978 l 0,-17.57328 -6.5131,0 0,-9.18131 6.98282,0 1.01692,-11.69453 10.04326,-0.77964 0,12.47417 8.55662,0 0,9.18131"
       style="fill:#ffffff;fill-rule:nonzero;stroke:none" />
    <path
       id="path4197"
       d="m 563.18954,666.3619 0,-6.82302 -0.1598,0 c -1.87888,5.02163 -5.96107,7.61234 -11.37494,7.61234 -4.00471,0 -7.45739,-0.8668 -9.7285,-4.47443 -2.19848,-3.45267 -1.9612,-7.22011 -1.9612,-11.06502 l 0,-25.10815 11.5299,0 0,25.10815 c 0,3.21539 0.31476,6.27583 4.39695,6.27583 2.59072,0 4.78435,-1.48664 5.80611,-3.84007 0.78448,-1.80624 0.62952,-4.08219 0.62952,-6.12087 l 0,-21.42304 11.52989,0 0,39.85828 -10.66793,0"
       style="fill:#ffffff;fill-rule:nonzero;stroke:none" />
    <path
       id="path4199"
       d="m 590.1814,626.50362 0,7.45255 0.15496,0 c 1.17677,-4.23715 3.5302,-8.62926 8.55178,-8.23703 l 1.9612,0.15496 0,11.53474 c -8.78422,-0.46972 -9.88346,6.67291 -9.88346,13.73321 l 0,15.21985 -11.53474,0 0,-39.85828 10.75026,0"
       style="fill:#ffffff;fill-rule:nonzero;stroke:none" />
    <path
       id="path4201"
       d="m 628.39329,641.56851 c -0.23728,-4.31463 -1.64648,-8.31934 -6.66806,-8.31934 -5.10396,0 -7.06515,3.76743 -7.45739,8.31934 l 14.12545,0 z m -14.04313,6.82787 -0.0823,1.96119 c 0,4.70687 2.66824,8.55179 7.68982,8.55179 3.53016,0 7.06031,-2.59072 7.06031,-6.27583 l 10.67278,0.78448 c 0,1.96119 -4.62939,13.73321 -18.12533,13.73321 -11.92697,0 -19.69427,-8.31934 -19.69427,-20.16884 0,-11.76717 6.98282,-21.26324 19.37951,-21.26324 5.57367,0 11.3023,2.51324 14.59518,7.06031 3.29771,4.55191 4.15967,10.20306 4.08219,15.61693 l -25.57787,0"
       style="fill:#ffffff;fill-rule:nonzero;stroke:none" />
  </g>
</svg>
