<?xml version="1.0" encoding="UTF-8" standalone="no"?>
<svg
   xmlns:dc="http://purl.org/dc/elements/1.1/"
   xmlns:cc="http://creativecommons.org/ns#"
   xmlns:rdf="http://www.w3.org/1999/02/22-rdf-syntax-ns#"
   xmlns:svg="http://www.w3.org/2000/svg"
   xmlns="http://www.w3.org/2000/svg"
   xmlns:sodipodi="http://sodipodi.sourceforge.net/DTD/sodipodi-0.dtd"
   xmlns:inkscape="http://www.inkscape.org/namespaces/inkscape"
   version="1.1"
   id="svg10"
   width="1600"
   height="1000"
   viewBox="0 0 1600 1000"
   sodipodi:docname="TWC-Black-vect.svg"
   inkscape:version="1.0.2-2 (e86c870879, 2021-01-15)">
  <metadata
     id="metadata16">
    <rdf:RDF>
      <cc:Work
         rdf:about="">
        <dc:format>image/svg+xml</dc:format>
        <dc:type
           rdf:resource="http://purl.org/dc/dcmitype/StillImage" />
        <dc:title></dc:title>
      </cc:Work>
    </rdf:RDF>
  </metadata>
  <defs
     id="defs14" />
  <sodipodi:namedview
     pagecolor="#ffffff"
     bordercolor="#666666"
     borderopacity="1"
     objecttolerance="10"
     gridtolerance="10"
     guidetolerance="10"
     inkscape:pageopacity="0"
     inkscape:pageshadow="2"
     inkscape:window-width="1366"
     inkscape:window-height="705"
     id="namedview12"
     showgrid="false"
     inkscape:zoom="0.538"
     inkscape:cx="800"
     inkscape:cy="500"
     inkscape:window-x="-8"
     inkscape:window-y="-8"
     inkscape:window-maximized="1"
     inkscape:current-layer="g18" />
  <g
     inkscape:groupmode="layer"
     inkscape:label="Image"
     id="g18">
    <g
       id="g22"
       transform="translate(-68.773238,-74.349443)">
      <path
         style="fill:#b9b9b9;fill-opacity:1"
         d="m 722.45264,889.73717 c -0.26653,-0.69455 -0.36433,-14.08205 -0.21734,-29.75 l 0.26725,-28.48717 0.49873,29.75058 c 0.27429,16.36281 0.3721,29.75031 0.21734,29.75 -0.15477,-3.2e-4 -0.49946,-0.56885 -0.76598,-1.26341 z m 142.35986,0.57972 c 0.72187,-0.28887 1.58438,-0.25335 1.91667,0.0789 0.33229,0.33229 -0.25834,0.56864 -1.3125,0.52522 -1.16495,-0.048 -1.4019,-0.28494 -0.60417,-0.60416 z m 649.6464,-0.38342 c -0.3626,-0.58659 -0.4447,-1.281 -0.1826,-1.54313 0.2622,-0.26213 0.7431,0.21781 1.0688,1.06653 0.6762,1.76211 0.1,2.07206 -0.8862,0.4766 z M 321.29966,885 c 0,-3.025 0.18747,-4.2625 0.41659,-2.75 0.22913,1.5125 0.22913,3.9875 0,5.5 -0.22912,1.5125 -0.41659,0.275 -0.41659,-2.75 z m 520,-1 c 0,-3.025 0.18747,-4.2625 0.41659,-2.75 0.22913,1.5125 0.22913,3.9875 0,5.5 -0.22912,1.5125 -0.41659,0.275 -0.41659,-2.75 z M 538.43244,864 c 0,-13.475 0.14155,-18.9875 0.31456,-12.25 0.17301,6.7375 0.17301,17.7625 0,24.5 -0.17301,6.7375 -0.31456,1.225 -0.31456,-12.25 z M 635.75,878.26779 c 2.3375,-0.21053 6.1625,-0.21053 8.5,0 2.3375,0.21054 0.425,0.3828 -4.25,0.3828 -4.675,0 -6.5875,-0.17226 -4.25,-0.3828 z m 551.5302,-0.004 c 2.6291,-0.20668 6.6791,-0.20418 9,0.006 2.3209,0.20972 0.1698,0.37882 -4.7802,0.37577 -4.95,-0.003 -6.8489,-0.17464 -4.2198,-0.38131 z M 99.5,844 l -5,-0.68579 4.690983,-0.15711 C 101.77102,843.0707 104.16008,843.45 104.5,844 c 0.33992,0.55 0.47898,0.9293 0.30902,0.8429 C 104.63906,844.75649 102.25,844.37719 99.5,844 Z m -7.6875,-0.68311 c 0.721875,-0.28887 1.584375,-0.25335 1.916667,0.0789 0.332291,0.33229 -0.258334,0.56864 -1.3125,0.52522 -1.164943,-0.048 -1.4019,-0.28494 -0.604167,-0.60416 z M 321.29966,837 c 0,-3.025 0.18747,-4.2625 0.41659,-2.75 0.22913,1.5125 0.22913,3.9875 0,5.5 -0.22912,1.5125 -0.41659,0.275 -0.41659,-2.75 z M 692.8125,782.31689 c 0.72187,-0.28887 1.58438,-0.25335 1.91667,0.0789 0.33229,0.33229 -0.25834,0.56864 -1.3125,0.52522 -1.16495,-0.048 -1.4019,-0.28494 -0.60417,-0.60416 z m -439,-9 c 0.72187,-0.28887 1.58437,-0.25335 1.91667,0.0789 0.33229,0.33229 -0.25834,0.56864 -1.3125,0.52522 -1.16495,-0.048 -1.4019,-0.28494 -0.60417,-0.60416 z m 1091.9375,-0.0226 c 1.2375,-0.23836 3.2625,-0.23836 4.5,0 1.2375,0.23835 0.225,0.43337 -2.25,0.43337 -2.475,0 -3.4875,-0.19502 -2.25,-0.43337 z m 64.25,0.14263 c 3.568,-0.78756 10,-0.92477 10,-0.21333 0,0.42704 -2.5875,0.72423 -5.75,0.66043 -3.1625,-0.0638 -5.075,-0.265 -4.25,-0.4471 z m 63.7617,-0.14416 c 1.2439,-0.23919 3.0439,-0.23011 4,0.0202 0.956,0.25029 -0.062,0.446 -2.2617,0.4349 -2.2,-0.0111 -2.9823,-0.21589 -1.7383,-0.45508 z M 770.5,755 c 0.99549,-1.1 2.03498,-2 2.30998,-2 0.275,0 -0.31449,0.9 -1.30998,2 -0.99549,1.1 -2.03498,2 -2.30998,2 -0.275,0 0.31449,-0.9 1.30998,-2 z m 726,0 c 0.9955,-1.1 2.035,-2 2.31,-2 0.275,0 -0.3145,0.9 -1.31,2 -0.9955,1.1 -2.035,2 -2.31,2 -0.275,0 0.3145,-0.9 1.31,-2 z m -18,-15 c 0.9955,-1.1 2.035,-2 2.31,-2 0.275,0 -0.3145,0.9 -1.31,2 -0.9955,1.1 -2.035,2 -2.31,2 -0.275,0 0.3145,-0.9 1.31,-2 z m 3.5,-3.37756 c 0,-0.20765 0.7875,-0.99515 1.75,-1.75 1.5861,-1.24387 1.6214,-1.2085 0.3776,0.37756 -1.3064,1.66575 -2.1276,2.19548 -2.1276,1.37244 z M 1217.8724,732.25 c -1.2438,-1.58606 -1.2085,-1.62143 0.3776,-0.37756 1.6657,1.30637 2.1955,2.12756 1.3724,2.12756 -0.2076,0 -0.9951,-0.7875 -1.75,-1.75 z m -4.9481,-5 -2.4243,-2.75 2.75,2.42431 c 1.5125,1.33338 2.75,2.57088 2.75,2.75 0,0.78428 -0.8098,0.14598 -3.0757,-2.42431 z M 1134.1579,678 c 0,-1.375 0.227,-1.9375 0.5044,-1.25 0.2774,0.6875 0.2774,1.8125 0,2.5 -0.2774,0.6875 -0.5044,0.125 -0.5044,-1.25 z M 987,651.62244 c 0,-0.20765 0.7875,-0.99515 1.75,-1.75 1.58606,-1.24387 1.62143,-1.2085 0.37756,0.37756 C 987.82119,651.91575 987,652.44548 987,651.62244 Z M 1176.1579,626 c 0,-1.375 0.227,-1.9375 0.5044,-1.25 0.2774,0.6875 0.2774,1.8125 0,2.5 -0.2774,0.6875 -0.5044,0.125 -0.5044,-1.25 z m -41.7174,-102 c 0,-15.675 0.1383,-22.0875 0.3072,-14.25 0.169,7.8375 0.169,20.6625 0,28.5 -0.1689,7.8375 -0.3072,1.425 -0.3072,-14.25 z M 992.34941,512 c 0,-4.675 0.17226,-6.5875 0.3828,-4.25 0.21053,2.3375 0.21053,6.1625 0,8.5 -0.21054,2.3375 -0.3828,0.425 -0.3828,-4.25 z m -0.96405,-228 c 0,-6.875 0.15977,-9.6875 0.35504,-6.25 0.19527,3.4375 0.19527,9.0625 0,12.5 -0.19527,3.4375 -0.35504,0.625 -0.35504,-6.25 z m 142.00634,-41 c 0,-7.425 0.1574,-10.4625 0.3499,-6.75 0.1924,3.7125 0.1924,9.7875 0,13.5 -0.1925,3.7125 -0.3499,0.675 -0.3499,-6.75 z M 189,254.68709 c 0,-0.1721 1.4625,-1.6346 3.25,-3.25 l 3.25,-2.93709 -2.93709,3.25 C 189.82513,254.77946 189,255.45965 189,254.68709 Z M 80.194949,215.5 c 0.02038,-1.65 0.244498,-2.20394 0.498042,-1.23097 0.253543,0.97297 0.236869,2.32297 -0.03705,3 C 80.382014,217.94606 80.174569,217.15 80.194949,215.5 Z M 1477.5643,214.29313 c -0.5427,-1.4252 -0.4278,-1.54006 0.5598,-0.5598 0.6834,0.67834 0.9907,1.48524 0.6828,1.79313 -0.3079,0.30789 -0.8671,-0.24711 -1.2426,-1.23333 z"
         id="path36" />
      <path
         style="fill:#a3a3a3;fill-opacity:1"
         d="m 85.291588,890.2575 c 3.735374,-0.19293 9.585374,-0.19149 13,0.003 3.414622,0.19468 0.358412,0.35253 -6.791588,0.35078 -7.15,-0.002 -9.943785,-0.16103 -6.208412,-0.35396 z m 113.436112,0.0208 c 1.77523,-0.22091 4.92523,-0.22454 7,-0.008 2.07476,0.21648 0.6223,0.39722 -3.2277,0.40166 -3.85,0.004 -5.54754,-0.17268 -3.7723,-0.39359 z m 108.05582,-0.0167 c 2.90594,-0.20265 7.40594,-0.20052 10,0.005 2.59406,0.20525 0.21648,0.37104 -5.28352,0.36844 -5.5,-0.003 -7.62242,-0.17053 -4.71648,-0.37317 z m 90.96648,0.015 c 1.7875,-0.22182 4.7125,-0.22182 6.5,0 1.7875,0.22183 0.325,0.40333 -3.25,0.40333 -3.575,0 -5.0375,-0.1815 -3.25,-0.40333 z m 91.01791,-10e-4 c 1.79735,-0.22256 4.49735,-0.21797 6,0.0102 1.50265,0.22818 0.0321,0.41027 -3.26791,0.40466 -3.3,-0.006 -4.52944,-0.1923 -2.73209,-0.41486 z m 42.70808,0.006 c 3.2868,-0.21703 6.35856,-0.93161 6.82613,-1.58796 0.59542,-0.8358 0.72865,-0.74392 0.44464,0.30665 -0.30361,1.1231 -2.01878,1.5221 -6.82613,1.58796 l -6.42063,0.088 5.97599,-0.39461 z m 82.97665,-0.54414 c -0.26653,-0.69455 -0.35761,-14.08205 -0.20241,-29.75 l 0.28219,-28.48717 0.23379,29.22639 0.23379,29.22638 17.25,0.29884 17.25,0.29883 -17.28138,0.22478 c -13.16419,0.17123 -17.39684,-0.0761 -17.76598,-1.03805 z M 726.25,890.28375 c 1.5125,-0.22913 3.9875,-0.22913 5.5,0 1.5125,0.22912 0.275,0.41659 -2.75,0.41659 -3.025,0 -4.2625,-0.18747 -2.75,-0.41659 z m 34.01903,0.0233 c 0.97297,-0.25354 2.32297,-0.23687 3,0.0371 0.67703,0.27393 -0.11903,0.48137 -1.76903,0.46099 -1.65,-0.0204 -2.20394,-0.2445 -1.23097,-0.49804 z m 88.01748,-0.0471 c 3.18258,-0.19905 8.13258,-0.1972 11,0.004 2.86742,0.20131 0.26349,0.36417 -5.78651,0.36191 -6.05,-0.002 -8.39607,-0.16696 -5.21349,-0.36601 z m 104.96349,0.0238 c 1.5125,-0.22913 3.9875,-0.22913 5.5,0 1.5125,0.22912 0.275,0.41659 -2.75,0.41659 -3.025,0 -4.2625,-0.18747 -2.75,-0.41659 z m 37,0 c 1.5125,-0.22913 3.9875,-0.22913 5.5,0 1.5125,0.22912 0.275,0.41659 -2.75,0.41659 -3.025,0 -4.2625,-0.18747 -2.75,-0.41659 z m 77.0137,-0.001 c 1.5201,-0.22986 3.7701,-0.22371 5,0.0136 1.23,0.23736 -0.014,0.42542 -2.7637,0.41792 -2.75,-0.008 -3.7563,-0.20172 -2.2363,-0.43157 z m 97.3882,-0.0324 c -0.2564,-0.4125 5.0045,-0.63266 11.6909,-0.48925 22.073,0.47344 24.4068,0.85117 6.4662,1.04657 -9.73,0.10597 -17.9007,-0.14482 -18.1571,-0.55732 z m 113.116,0.0253 c 1.7974,-0.22256 4.4974,-0.21797 6,0.0102 1.5027,0.22818 0.032,0.41027 -3.2679,0.40466 -3.3,-0.006 -4.5294,-0.1923 -2.7321,-0.41486 z m 31,0 c 1.7974,-0.22256 4.4974,-0.21797 6,0.0102 1.5027,0.22818 0.032,0.41027 -3.2679,0.40466 -3.3,-0.006 -4.5294,-0.1923 -2.7321,-0.41486 z m 88,0 c 1.7974,-0.22256 4.4974,-0.21797 6,0.0102 1.5027,0.22818 0.032,0.41027 -3.2679,0.40466 -3.3,-0.006 -4.5294,-0.1923 -2.7321,-0.41486 z m 85,0 c 1.7974,-0.22256 4.4974,-0.21797 6,0.0102 1.5027,0.22818 0.032,0.41027 -3.2679,0.40466 -3.3,-0.006 -4.5294,-0.1923 -2.7321,-0.41486 z m 36.9821,10e-4 c 1.7875,-0.22182 4.7125,-0.22182 6.5,0 1.7875,0.22183 0.325,0.40333 -3.25,0.40333 -3.575,0 -5.0375,-0.1815 -3.25,-0.40333 z M 734.39994,873.5 c 10e-4,-8.25 0.15629,-11.49193 0.34419,-7.20429 0.1879,4.28763 0.18676,11.03763 -0.003,15 -0.1893,3.96236 -0.34304,0.45429 -0.34164,-7.79571 z M 1164.4405,860 c 0,-15.675 0.1383,-22.0875 0.3072,-14.25 0.169,7.8375 0.169,20.6625 0,28.5 -0.1689,7.8375 -0.3072,1.425 -0.3072,-14.25 z M 628.75,878.33772 c 0.6875,-0.27741 1.8125,-0.27741 2.5,0 0.6875,0.27741 0.125,0.50439 -1.25,0.50439 -1.375,0 -1.9375,-0.22698 -1.25,-0.50439 z M 90.286014,873.5 c 0.0075,-2.75 0.201713,-3.75631 0.431567,-2.23625 0.229855,1.52006 0.223712,3.77006 -0.01365,5 C 90.466569,877.49369 90.278507,876.25 90.286014,873.5 Z M 866.232,873 c 0,-1.925 0.2058,-2.7125 0.45733,-1.75 0.25152,0.9625 0.25152,2.5375 0,3.5 -0.25153,0.9625 -0.45733,0.175 -0.45733,-1.75 z M 90.252183,851.5 c 0.0111,-2.2 0.215885,-2.98225 0.455078,-1.73834 0.239193,1.24391 0.230112,3.04391 -0.02018,4 C 90.436788,854.71775 90.241084,853.7 90.252183,851.5 Z m 27.942767,-3 c 0.0204,-1.65 0.2445,-2.20394 0.49804,-1.23097 0.25354,0.97297 0.23687,2.32297 -0.037,3 C 118.38206,850.94606 118.17462,850.15 118.195,848.5 Z M 572.75,782.33772 c 0.6875,-0.27741 1.8125,-0.27741 2.5,0 0.6875,0.27741 0.125,0.50439 -1.25,0.50439 -1.375,0 -1.9375,-0.22698 -1.25,-0.50439 z m 334.5,-0.0271 c 0.9625,-0.25152 2.5375,-0.25152 3.5,0 0.9625,0.25153 0.175,0.45733 -1.75,0.45733 -1.925,0 -2.7125,-0.2058 -1.75,-0.45733 z m -632.9346,-9.05953 c 10.34848,-0.16266 26.99848,-0.16241 37,5.6e-4 10.00153,0.16297 1.5346,0.29606 -18.8154,0.29575 -20.35,-3.1e-4 -28.53307,-0.13365 -18.1846,-0.29631 z m 1091.9958,6.5e-4 c 8.1461,-0.16828 21.1961,-0.16789 29,8.6e-4 7.8038,0.16876 1.1388,0.30644 -14.8112,0.30596 -15.95,-4.7e-4 -22.335,-0.13854 -14.1888,-0.30682 z m 123.6888,0.038 c 28.9183,-0.70441 54.7704,-0.72335 54.3468,-0.0398 -0.2557,0.4125 -15.1758,0.65324 -33.1558,0.53497 -17.9801,-0.11827 -27.516,-0.34109 -21.191,-0.49516 z M 1134.1579,674 c 0,-1.375 0.227,-1.9375 0.5044,-1.25 0.2774,0.6875 0.2774,1.8125 0,2.5 -0.2774,0.6875 -0.5044,0.125 -0.5044,-1.25 z m 364.7145,-23.75 c -1.2438,-1.58606 -1.2085,-1.62143 0.3776,-0.37756 0.9625,0.75485 1.75,1.54235 1.75,1.75 0,0.82304 -0.8212,0.29331 -2.1276,-1.37244 z m -1250.99996,-56 c -1.24387,-1.58606 -1.2085,-1.62143 0.37756,-0.37756 1.66575,1.30637 2.19548,2.12756 1.37244,2.12756 -0.20765,0 -0.99515,-0.7875 -1.75,-1.75 z M 1134.4071,568 c 0,-9.075 0.1516,-12.7875 0.3369,-8.25 0.1853,4.5375 0.1853,11.9625 0,16.5 -0.1853,4.5375 -0.3369,0.825 -0.3369,-8.25 z M 992.34941,496 c 0,-4.675 0.17226,-6.5875 0.3828,-4.25 0.21053,2.3375 0.21053,6.1625 0,8.5 -0.21054,2.3375 -0.3828,0.425 -0.3828,-4.25 z M 1176.1579,310 c 0,-1.375 0.227,-1.9375 0.5044,-1.25 0.2774,0.6875 0.2774,1.8125 0,2.5 -0.2774,0.6875 -0.5044,0.125 -0.5044,-1.25 z m -42.7361,-34 c 0,-11.275 0.1458,-15.8875 0.3241,-10.25 0.1782,5.6375 0.1782,14.8625 0,20.5 -0.1783,5.6375 -0.3241,1.025 -0.3241,-10.25 z M 991.34941,264 c 0,-4.675 0.17226,-6.5875 0.3828,-4.25 0.21053,2.3375 0.21053,6.1625 0,8.5 -0.21054,2.3375 -0.3828,0.425 -0.3828,-4.25 z M 323.82944,229.25005 c 51.8812,-0.14315 136.4812,-0.14314 188,3e-5 51.51881,0.14316 9.07056,0.26029 -94.32944,0.26027 -103.4,-10e-6 -145.55175,-0.11715 -93.67056,-0.2603 z m 441.49345,3.2e-4 c 18.60259,-0.15243 48.75259,-0.15235 67,1.9e-4 18.24741,0.15253 3.02711,0.27725 -33.82289,0.27714 -36.85,-1e-4 -51.7797,-0.12491 -33.17711,-0.27733 z m 262.00051,-4e-5 c 19.7029,-0.15167 51.6529,-0.15159 71,1.7e-4 19.3471,0.15175 3.2266,0.27584 -35.8234,0.27575 -39.05,-1e-4 -54.8795,-0.12426 -35.1766,-0.27592 z m 208.0005,-4e-5 c 20.8032,-0.15096 54.5532,-0.15089 75,1.6e-4 20.4469,0.15105 3.4261,0.27457 -37.8239,0.27449 -41.25,-9e-5 -57.9792,-0.12368 -37.1761,-0.27465 z M 324.25,200.25006 c 51.0125,-0.14323 134.4875,-0.14323 185.5,0 51.0125,0.14324 9.275,0.26043 -92.75,0.26043 -102.025,0 -143.7625,-0.11719 -92.75,-0.26043 z m 442.57274,3.2e-4 c 18.32751,-0.15264 48.02751,-0.15255 66,1.9e-4 17.97249,0.15275 2.97726,0.27763 -33.32274,0.27752 -36.3,-1.1e-4 -51.00477,-0.12508 -32.67726,-0.27771 z m 260.00056,-4e-5 c 19.4278,-0.15185 50.9278,-0.15177 70,1.7e-4 19.0722,0.15195 3.1767,0.27618 -35.3233,0.27609 -38.5,-1e-4 -54.1045,-0.12442 -34.6767,-0.27626 z m 225.9267,1.9e-4 c 17.1875,-0.15346 45.3125,-0.15346 62.5,0 17.1875,0.15346 3.125,0.27901 -31.25,0.27901 -34.375,0 -48.4375,-0.12555 -31.25,-0.27901 z m 86.0117,-38.95779 c 1.2439,-0.23919 3.0439,-0.23011 4,0.0202 0.956,0.25029 -0.062,0.446 -2.2617,0.4349 -2.2,-0.0111 -2.9823,-0.21589 -1.7383,-0.45508 z"
         id="path34" />
      <path
         style="fill:#8c8c8c;fill-opacity:1"
         d="m 525.39739,876 c 0,-7.975 0.1553,-11.2375 0.34512,-7.25 0.18981,3.9875 0.18981,10.5125 0,14.5 -0.18982,3.9875 -0.34512,0.725 -0.34512,-7.25 z m 242.044,-15.5 c 4.7e-4,-15.95 0.13854,-22.33497 0.30682,-14.18883 0.16828,8.14615 0.16789,21.19615 -8.6e-4,29 -0.16876,7.80386 -0.30644,1.13883 -0.30596,-14.81117 z m 296.84461,24 c 0.01,-2.75 0.2017,-3.75631 0.4316,-2.23625 0.2298,1.52006 0.2237,3.77006 -0.014,5 -0.2373,1.22994 -0.4254,-0.0137 -0.4179,-2.76375 z m -778.09105,-10 c 0.0204,-1.65 0.2445,-2.20394 0.49804,-1.23097 0.25354,0.97297 0.23687,2.32297 -0.0371,3 -0.27393,0.67703 -0.48137,-0.11903 -0.46099,-1.76903 z M 525.15789,858 c 0,-1.375 0.22698,-1.9375 0.50439,-1.25 0.27741,0.6875 0.27741,1.8125 0,2.5 -0.27741,0.6875 -0.50439,0.125 -0.50439,-1.25 z M 1289.75,843.29427 c 1.2375,-0.23836 3.2625,-0.23836 4.5,0 1.2375,0.23835 0.225,0.43337 -2.25,0.43337 -2.475,0 -3.4875,-0.19502 -2.25,-0.43337 z m 9.0625,0.0226 c 0.7219,-0.28887 1.5844,-0.25335 1.9167,0.0789 0.3323,0.33229 -0.2584,0.56864 -1.3125,0.52522 -1.165,-0.048 -1.4019,-0.28494 -0.6042,-0.60416 z M 1199.2997,837 c 0,-3.025 0.1874,-4.2625 0.4166,-2.75 0.2291,1.5125 0.2291,3.9875 0,5.5 -0.2292,1.5125 -0.4166,0.275 -0.4166,-2.75 z M 113.87244,836.25 c -1.24387,-1.58606 -1.2085,-1.62143 0.37756,-0.37756 1.66575,1.30637 2.19548,2.12756 1.37244,2.12756 -0.20765,0 -0.99515,-0.7875 -1.75,-1.75 z M 576.75,782.33772 c 0.6875,-0.27741 1.8125,-0.27741 2.5,0 0.6875,0.27741 0.125,0.50439 -1.25,0.50439 -1.375,0 -1.9375,-0.22698 -1.25,-0.50439 z M 1544.4709,709 c 0,-34.925 0.1254,-49.2125 0.2786,-31.75 0.1532,17.4625 0.1532,46.0375 0,63.5 -0.1532,17.4625 -0.2786,3.175 -0.2786,-31.75 z M 1492,759.62244 c 0,-0.20765 0.7875,-0.99515 1.75,-1.75 1.5861,-1.24387 1.6214,-1.2085 0.3776,0.37756 -1.3064,1.66575 -2.1276,2.19548 -2.1276,1.37244 z M 646.6806,654.25101 c 13.29933,-0.15744 35.34933,-0.15759 49,-3.4e-4 13.65067,0.15725 2.7694,0.28606 -24.1806,0.28625 -26.95,1.8e-4 -38.11873,-0.12847 -24.8194,-0.28591 z m 257.6393,-3.9e-4 c 14.20094,-0.15657 37.15094,-0.15643 51,3.1e-4 13.84905,0.15675 2.2301,0.28484 -25.8199,0.28467 -28.05,-1.7e-4 -39.38105,-0.12842 -25.1801,-0.28498 z M 1176.1949,620.5 c 0.02,-1.65 0.2445,-2.20394 0.4981,-1.23097 0.2535,0.97297 0.2369,2.32297 -0.037,3 -0.2739,0.67703 -0.4813,-0.11903 -0.461,-1.76903 z M 187.48835,452 c 0,-91.575 0.11771,-129.0375 0.26157,-83.25 0.14386,45.7875 0.14386,120.7125 0,166.5 -0.14386,45.7875 -0.26157,8.325 -0.26157,-83.25 z m 946.89705,144 c 0,-6.875 0.1597,-9.6875 0.355,-6.25 0.1953,3.4375 0.1953,9.0625 0,12.5 -0.1953,3.4375 -0.355,0.625 -0.355,-6.25 z M 992.38536,476 c 0,-6.875 0.15977,-9.6875 0.35504,-6.25 0.19527,3.4375 0.19527,9.0625 0,12.5 -0.19527,3.4375 -0.35504,0.625 -0.35504,-6.25 z M 1133.4071,312 c 0,-9.075 0.1516,-12.7875 0.3369,-8.25 0.1853,4.5375 0.1853,11.9625 0,16.5 -0.1853,4.5375 -0.3369,0.825 -0.3369,-8.25 z m 42.7508,2 c 0,-1.375 0.227,-1.9375 0.5044,-1.25 0.2774,0.6875 0.2774,1.8125 0,2.5 -0.2774,0.6875 -0.5044,0.125 -0.5044,-1.25 z m 159.61,-24.72473 c 1.7974,-0.22256 4.4974,-0.21797 6,0.0102 1.5027,0.22818 0.032,0.41027 -3.2679,0.40466 -3.3,-0.006 -4.5294,-0.1923 -2.7321,-0.41486 z m 86.8861,-0.0253 c -0.421,-0.68049 44.851,-0.67028 100.346,0.0226 11.825,0.14765 -5.8109,0.37171 -39.191,0.49791 -33.38,0.1262 -60.8998,-0.10805 -61.155,-0.52055 z M 1544.4709,225 c 0,-34.925 0.1254,-49.2125 0.2786,-31.75 0.1532,17.4625 0.1532,46.0375 0,63.5 -0.1532,17.4625 -0.2786,3.175 -0.2786,-31.75 z M 153.75,266.29427 c 1.2375,-0.23836 3.2625,-0.23836 4.5,0 1.2375,0.23835 0.225,0.43337 -2.25,0.43337 -2.475,0 -3.4875,-0.19502 -2.25,-0.43337 z M 991.38536,244 c 0,-6.875 0.15977,-9.6875 0.35504,-6.25 0.19527,3.4375 0.19527,9.0625 0,12.5 -0.19527,3.4375 -0.35504,0.625 -0.35504,-6.25 z m 353.42714,-82.68311 c 0.7219,-0.28887 1.5844,-0.25335 1.9167,0.0789 0.3323,0.33229 -0.2584,0.56864 -1.3125,0.52522 -1.165,-0.048 -1.4019,-0.28494 -0.6042,-0.60416 z"
         id="path32" />
      <path
         style="fill:#767676;fill-opacity:1"
         d="m 1274.4422,861 c 0,-16.225 0.1376,-22.8625 0.3057,-14.75 0.168,8.1125 0.168,21.3875 0,29.5 -0.1681,8.1125 -0.3057,1.475 -0.3057,-14.75 z M 209.44052,860 c 0,-15.675 0.13824,-22.0875 0.3072,-14.25 0.16896,7.8375 0.16896,20.6625 0,28.5 -0.16896,7.8375 -0.3072,1.425 -0.3072,-14.25 z m 185,0 c 0,-15.675 0.13824,-22.0875 0.3072,-14.25 0.16896,7.8375 0.16896,20.6625 0,28.5 -0.16896,7.8375 -0.3072,1.425 -0.3072,-14.25 z m 1010.99998,0 c 0,-15.675 0.1383,-22.0875 0.3072,-14.25 0.169,7.8375 0.169,20.6625 0,28.5 -0.1689,7.8375 -0.3072,1.425 -0.3072,-14.25 z m -441.70717,17.87591 c 0.67834,-0.68342 1.48524,-0.99067 1.79313,-0.68278 0.30789,0.30789 -0.24711,0.86705 -1.23333,1.24258 -1.4252,0.54268 -1.54006,0.42782 -0.5598,-0.5598 z m 105.02837,0.41683 c 1.2439,-0.23919 3.0439,-0.23011 4,0.0202 0.956,0.25029 -0.062,0.446 -2.2617,0.4349 -2.2,-0.0111 -2.9823,-0.21589 -1.7383,-0.45508 z m -99.034,-1.01447 c 1.77523,-0.22091 4.92523,-0.22454 7,-0.008 2.07476,0.21648 0.6223,0.39722 -3.2277,0.40166 -3.85,0.004 -5.54754,-0.17268 -3.7723,-0.39359 z m 528.5223,-0.0133 c 2.6125,-0.206 6.8875,-0.206 9.5,0 2.6125,0.206 0.475,0.37454 -4.75,0.37454 -5.225,0 -7.3625,-0.16854 -4.75,-0.37454 z M 1074.4288,854.5 c 7e-4,-12.65 0.144,-17.68711 0.3185,-11.19358 0.1744,6.49353 0.1738,16.84353 0,23 -0.1752,6.15647 -0.3179,0.84358 -0.3172,-11.80642 z m -788.04026,5 c 0.002,-7.15 0.16103,-9.94379 0.35396,-6.20841 0.19293,3.73537 0.19149,9.58537 -0.003,13 -0.19468,3.41462 -0.35253,0.35841 -0.35078,-6.79159 z m 1003.87516,9.78242 c 1.5201,-0.22986 3.7701,-0.22371 5,0.0136 1.23,0.23736 -0.014,0.42542 -2.7637,0.41792 -2.75,-0.008 -3.7563,-0.20172 -2.2363,-0.43157 z M 632.78352,866.2616 c 2.90594,-0.20265 7.40594,-0.20052 10,0.005 2.59406,0.20525 0.21648,0.37104 -5.28352,0.36844 -5.5,-0.003 -7.62242,-0.17053 -4.71648,-0.37317 z m 550.46648,0.003 c 2.6125,-0.206 6.8875,-0.206 9.5,0 2.6125,0.206 0.475,0.37454 -4.75,0.37454 -5.225,0 -7.3625,-0.16854 -4.75,-0.37454 z M 840.25218,849.5 c 0.0111,-2.2 0.21589,-2.98225 0.45508,-1.73834 0.23919,1.24391 0.23011,3.04391 -0.0202,4 -0.25029,0.95609 -0.446,-0.0617 -0.4349,-2.26166 z m -200.82101,-6.22809 c 7.86351,-0.28562 9.52065,-0.62844 9.94491,-2.05732 0.3789,-1.27614 0.45688,-1.20315 0.30492,0.28541 -0.18832,1.84473 -0.9604,2.00445 -9.94491,2.05732 l -9.74074,0.0573 9.43582,-0.34273 z m 546.34523,-0.005 c 2.3521,-0.21124 5.9521,-0.20827 8,0.007 2.048,0.21487 0.1236,0.38771 -4.2764,0.38408 -4.4,-0.004 -6.0756,-0.17944 -3.7236,-0.39069 z M 580.75,782.33772 c 0.6875,-0.27741 1.8125,-0.27741 2.5,0 0.6875,0.27741 0.125,0.50439 -1.25,0.50439 -1.375,0 -1.9375,-0.22698 -1.25,-0.50439 z m 101,-0.0435 c 1.2375,-0.23836 3.2625,-0.23836 4.5,0 1.2375,0.23835 0.225,0.43337 -2.25,0.43337 -2.475,0 -3.4875,-0.19502 -2.25,-0.43337 z m 231.5,0.0164 c 0.9625,-0.25152 2.5375,-0.25152 3.5,0 0.9625,0.25153 0.175,0.45733 -1.75,0.45733 -1.925,0 -2.7125,-0.2058 -1.75,-0.45733 z m 104.5,-0.0164 c 1.2375,-0.23836 3.2625,-0.23836 4.5,0 1.2375,0.23835 0.225,0.43337 -2.25,0.43337 -2.475,0 -3.4875,-0.19502 -2.25,-0.43337 z M 1495.1949,702.5 c 0.02,-1.65 0.2445,-2.20394 0.4981,-1.23097 0.2535,0.97297 0.2369,2.32297 -0.037,3 -0.2739,0.67703 -0.4813,-0.11903 -0.461,-1.76903 z M 465.45888,685.93347 c -0.36253,-0.58659 -0.44468,-1.281 -0.18255,-1.54313 0.26212,-0.26213 0.74306,0.21781 1.06875,1.06653 0.67618,1.76211 0.0999,2.07206 -0.8862,0.4766 z M 1134.2724,668 c 0,-2.475 0.195,-3.4875 0.4333,-2.25 0.2384,1.2375 0.2384,3.2625 0,4.5 -0.2383,1.2375 -0.4333,0.225 -0.4333,-2.25 z m -670.11451,1 c 0,-1.375 0.22698,-1.9375 0.50439,-1.25 0.27741,0.6875 0.27741,1.8125 0,2.5 -0.27741,0.6875 -0.50439,0.125 -0.50439,-1.25 z M 1405,667.62244 c 0,-0.20765 0.7875,-0.99515 1.75,-1.75 1.5861,-1.24387 1.6214,-1.2085 0.3776,0.37756 -1.3064,1.66575 -2.1276,2.19548 -2.1276,1.37244 z M 1134.4218,628 c 0,-11.275 0.1458,-15.8875 0.3241,-10.25 0.1782,5.6375 0.1782,14.8625 0,20.5 -0.1783,5.6375 -0.3241,1.025 -0.3241,-10.25 z m 42.0654,-161 c 0,-83.325 0.1182,-117.4125 0.2627,-75.75 0.1445,41.6625 0.1445,109.8375 0,151.5 -0.1445,41.6625 -0.2627,7.575 -0.2627,-75.75 z M 992.38536,452 c 0,-6.875 0.15977,-9.6875 0.35504,-6.25 0.19527,3.4375 0.19527,9.0625 0,12.5 -0.19527,3.4375 -0.35504,0.625 -0.35504,-6.25 z M 1133.4071,344 c 0,-9.075 0.1516,-12.7875 0.3369,-8.25 0.1853,4.5375 0.1853,11.9625 0,16.5 -0.1853,4.5375 -0.3369,0.825 -0.3369,-8.25 z M 68.75,285.25161 c 9.4875,-0.16436 25.0125,-0.16436 34.5,0 9.4875,0.16436 1.725,0.29883 -17.25,0.29883 -18.975,0 -26.7375,-0.13447 -17.25,-0.29883 z M 184,284.94098 c 0,-0.58246 0.45,-0.7809 1,-0.44098 0.55,0.33992 1,0.81648 1,1.05902 0,0.24254 -0.45,0.44098 -1,0.44098 -0.55,0 -1,-0.47656 -1,-1.05902 z m 182.25,0.3095 c 18.0125,-0.15279 47.4875,-0.15279 65.5,0 18.0125,0.15279 3.275,0.27781 -32.75,0.27781 -36.025,0 -50.7625,-0.12502 -32.75,-0.27781 z M 100.92431,267.25 98.5,264.5 l 2.75,2.42431 c 2.57029,2.26589 3.20859,3.07569 2.42431,3.07569 -0.17912,0 -1.41662,-1.2375 -2.75,-2.75 z M 119,178.5 c 1.29175,-1.375 2.57363,-2.5 2.84863,-2.5 0.275,0 -0.55688,1.125 -1.84863,2.5 -1.29175,1.375 -2.57363,2.5 -2.84863,2.5 -0.275,0 0.55688,-1.125 1.84863,-2.5 z m 34.75,-15.20573 c 1.2375,-0.23836 3.2625,-0.23836 4.5,0 1.2375,0.23835 0.225,0.43337 -2.25,0.43337 -2.475,0 -3.4875,-0.19502 -2.25,-0.43337 z m 1172.0625,-0.97738 c 0.7219,-0.28887 1.5844,-0.25335 1.9167,0.0789 0.3323,0.33229 -0.2584,0.56864 -1.3125,0.52522 -1.165,-0.048 -1.4019,-0.28494 -0.6042,-0.60416 z M 1453,161.90638 c 0,-0.49851 0.9,-0.90638 2,-0.90638 1.1,0 2,0.17252 2,0.38337 0,0.21085 -0.9,0.61872 -2,0.90638 -1.1,0.28766 -2,0.11514 -2,-0.38337 z M 51.75,161.33772 c 0.6875,-0.27741 1.8125,-0.27741 2.5,0 0.6875,0.27741 0.125,0.50439 -1.25,0.50439 -1.375,0 -1.9375,-0.22698 -1.25,-0.50439 z m 14.554351,-0.0845 c 5.942393,-0.17711 15.392393,-0.17644 21,0.001 5.607607,0.17792 0.745649,0.32282 -10.804351,0.322 -11.55,-8.2e-4 -16.138042,-0.14638 -10.195649,-0.32348 z M 310.25,161.25006 c 53.7625,-0.14295 141.7375,-0.14295 195.5,0 53.7625,0.14295 9.775,0.2599 -97.75,0.2599 -107.525,0 -151.5125,-0.11695 -97.75,-0.2599 z m 455.57274,3.2e-4 c 18.32751,-0.15264 48.02751,-0.15255 66,1.9e-4 17.97249,0.15275 2.97726,0.27763 -33.32274,0.27752 -36.3,-1.1e-4 -51.00477,-0.12508 -32.67726,-0.27771 z m 260.50046,-4e-5 c 19.1527,-0.15203 50.2027,-0.15195 69,1.9e-4 18.7972,0.15213 3.1268,0.27652 -34.8232,0.27642 -37.95,-1e-4 -53.3296,-0.12457 -34.1768,-0.27661 z m 432.9458,0.0567 c 0.973,-0.25354 2.323,-0.23687 3,0.0371 0.6771,0.27393 -0.119,0.48137 -1.769,0.46099 -1.65,-0.0204 -2.2039,-0.2445 -1.231,-0.49804 z m 24.481,-0.0558 c 11.1375,-0.16093 29.3625,-0.16093 40.5,0 11.1375,0.16094 2.025,0.29261 -20.25,0.29261 -22.275,0 -31.3875,-0.13167 -20.25,-0.29261 z"
         id="path30" />
      <path
         style="fill:#606060;fill-opacity:1"
         d="m 485.44225,861 c 0,-16.225 0.13752,-22.8625 0.30561,-14.75 0.16808,8.1125 0.16808,21.3875 0,29.5 -0.16809,8.1125 -0.30561,1.475 -0.30561,-14.75 z M 307.75,878.26779 c 2.3375,-0.21053 6.1625,-0.21053 8.5,0 2.3375,0.21054 0.425,0.3828 -4.25,0.3828 -4.675,0 -6.5875,-0.17226 -4.25,-0.3828 z m 543.03352,-0.006 c 2.90594,-0.20265 7.40594,-0.20052 10,0.005 2.59406,0.20525 0.21648,0.37104 -5.28352,0.36844 -5.5,-0.003 -7.62242,-0.17053 -4.71648,-0.37317 z M 119.15789,874 c 0,-1.375 0.22698,-1.9375 0.50439,-1.25 0.27741,0.6875 0.27741,1.8125 0,2.5 -0.27741,0.6875 -0.50439,0.125 -0.50439,-1.25 z M 508.75,873.33772 c 0.6875,-0.27741 1.8125,-0.27741 2.5,0 0.6875,0.27741 0.125,0.50439 -1.25,0.50439 -1.375,0 -1.9375,-0.22698 -1.25,-0.50439 z m 457.70888,-7.40425 c -0.36253,-0.58659 -0.44468,-1.281 -0.18255,-1.54313 0.26212,-0.26213 0.74306,0.21781 1.06875,1.06653 0.67618,1.76211 0.0998,2.07206 -0.8862,0.4766 z m 12.75169,-0.33261 c 0.70919,-0.76953 1.44699,-1.24947 1.63957,-1.06653 C 981.44328,865.09779 979.94,867 978.90156,867 c -0.53923,0 -0.40017,-0.62961 0.30901,-1.39914 z M 1197.2997,861 c 0,-3.025 0.1874,-4.2625 0.4166,-2.75 0.2291,1.5125 0.2291,3.9875 0,5.5 -0.2292,1.5125 -0.4166,0.275 -0.4166,-2.75 z m -550.00004,-1 c 0,-3.025 0.18747,-4.2625 0.41659,-2.75 0.22913,1.5125 0.22913,3.9875 0,5.5 -0.22912,1.5125 -0.41659,0.275 -0.41659,-2.75 z m 654.98634,-7.5 c 0.01,-2.75 0.2017,-3.75631 0.4316,-2.23625 0.2298,1.52006 0.2237,3.77006 -0.014,5 -0.2373,1.22994 -0.4254,-0.0137 -0.4179,-2.76375 z m -0.2071,-7.08333 c 0.048,-1.16495 0.285,-1.4019 0.6042,-0.60417 0.2889,0.72187 0.2534,1.58438 -0.079,1.91667 -0.3323,0.33229 -0.5687,-0.25834 -0.5253,-1.3125 z M 649.27236,836 c 0,-2.475 0.19502,-3.4875 0.43337,-2.25 0.23836,1.2375 0.23836,3.2625 0,4.5 -0.23835,1.2375 -0.43337,0.225 -0.43337,-2.25 z M 607.75,782.25085 c 13.3375,-0.15752 35.1625,-0.15752 48.5,0 13.3375,0.15752 2.425,0.28641 -24.25,0.28641 -26.675,0 -37.5875,-0.12889 -24.25,-0.28641 z m 334.5,-3e-5 c 13.6125,-0.15717 35.8875,-0.15717 49.5,0 13.6125,0.15716 2.475,0.28576 -24.75,0.28576 -27.225,0 -38.3625,-0.1286 -24.75,-0.28576 z m -45.4375,-0.93393 c 0.72187,-0.28887 1.58438,-0.25335 1.91667,0.0789 0.33229,0.33229 -0.25834,0.56864 -1.3125,0.52522 -1.16495,-0.048 -1.4019,-0.28494 -0.60417,-0.60416 z M 223.19495,765.5 c 0.0204,-1.65 0.2445,-2.20394 0.49804,-1.23097 0.25354,0.97297 0.23687,2.32297 -0.0371,3 -0.27393,0.67703 -0.48137,-0.11903 -0.46099,-1.76903 z m 0.27506,-64.5 c 0,-33.825 0.12575,-47.6625 0.27945,-30.75 0.15369,16.9125 0.15369,44.5875 0,61.5 -0.1537,16.9125 -0.27945,3.075 -0.27945,-30.75 z m 49.34581,-14.74892 c 10.6237,-0.1621 27.7237,-0.16186 38,5.4e-4 10.2763,0.16239 1.58418,0.29502 -19.31582,0.29473 -20.9,-3e-4 -29.30788,-0.13317 -18.68418,-0.29527 z m 360.43418,-10e-4 c 91.7125,-0.14074 241.7875,-0.14074 333.5,0 91.7125,0.14074 16.675,0.25588 -166.75,0.25588 -183.425,0 -258.4625,-0.11514 -166.75,-0.25588 z m 600.5,2.4e-4 c 24.8875,-0.14885 65.6125,-0.14885 90.5,0 24.8875,0.14885 4.525,0.27064 -45.25,0.27064 -49.775,0 -70.1375,-0.12179 -45.25,-0.27064 z M 464.07895,665.41667 c 0.048,-1.16495 0.28494,-1.4019 0.60416,-0.60417 0.28887,0.72187 0.25335,1.58438 -0.0789,1.91667 -0.33229,0.33229 -0.56864,-0.25834 -0.52522,-1.3125 z M 1134.3494,656 c 0,-4.675 0.1723,-6.5875 0.3828,-4.25 0.2105,2.3375 0.2105,6.1625 0,8.5 -0.2105,2.3375 -0.3828,0.425 -0.3828,-4.25 z M 725,652.62244 c 0,-0.20765 0.7875,-0.99515 1.75,-1.75 1.58606,-1.24387 1.62143,-1.2085 0.37756,0.37756 C 725.82119,652.91575 725,653.44548 725,652.62244 Z m 663,-2 c 0,-0.20765 0.7875,-0.99515 1.75,-1.75 1.5861,-1.24387 1.6214,-1.2085 0.3776,0.37756 -1.3064,1.66575 -2.1276,2.19548 -2.1276,1.37244 z m -209.9211,-4.20577 c 0.048,-1.16495 0.285,-1.4019 0.6042,-0.60417 0.2889,0.72187 0.2534,1.58438 -0.079,1.91667 -0.3323,0.33229 -0.5687,-0.25834 -0.5253,-1.3125 z M 1323.8724,640.25 c -1.2438,-1.58606 -1.2085,-1.62143 0.3776,-0.37756 0.9625,0.75485 1.75,1.54235 1.75,1.75 0,0.82304 -0.8212,0.29331 -2.1276,-1.37244 z M 992.34941,432 c 0,-4.675 0.17226,-6.5875 0.3828,-4.25 0.21053,2.3375 0.21053,6.1625 0,8.5 -0.21054,2.3375 -0.3828,0.425 -0.3828,-4.25 z m 141.08299,-48 c 0,-13.475 0.1416,-18.9875 0.3146,-12.25 0.173,6.7375 0.173,17.7625 0,24.5 -0.173,6.7375 -0.3146,1.225 -0.3146,-12.25 z M 123.8125,285.31689 c 0.72187,-0.28887 1.58437,-0.25335 1.91667,0.0789 0.33229,0.33229 -0.25834,0.56864 -1.3125,0.52522 -1.16495,-0.048 -1.4019,-0.28494 -0.60417,-0.60416 z M 1376.4698,212.5 c 10e-5,-33.55 0.126,-47.13013 0.2798,-30.17806 0.1537,16.95206 0.1536,44.40206 -3e-4,61 -0.1538,16.59793 -0.2796,2.72806 -0.2795,-30.82194 z M 104.15789,214 c 0,-1.375 0.22698,-1.9375 0.50439,-1.25 0.27741,0.6875 0.27741,1.8125 0,2.5 -0.27741,0.6875 -0.50439,0.125 -0.50439,-1.25 z m 887.11447,-18 c 0,-2.475 0.19502,-3.4875 0.43337,-2.25 0.23836,1.2375 0.23836,3.2625 0,4.5 -0.23835,1.2375 -0.43337,0.225 -0.43337,-2.25 z M 193.87244,181.25 c -1.24387,-1.58606 -1.2085,-1.62143 0.37756,-0.37756 0.9625,0.75485 1.75,1.54235 1.75,1.75 0,0.82304 -0.82119,0.29331 -2.12756,-1.37244 z"
         id="path28" />
      <path
         style="fill:#494949;fill-opacity:1"
         d="m 649.28601,884.5 c 0.008,-2.75 0.20172,-3.75631 0.43157,-2.23625 0.22986,1.52006 0.22371,3.77006 -0.0136,5 -0.23736,1.22994 -0.42542,-0.0137 -0.41792,-2.76375 z m -543.20706,-8.08333 c 0.048,-1.16495 0.28494,-1.4019 0.60416,-0.60417 0.28887,0.72187 0.25335,1.58438 -0.0789,1.91667 -0.3323,0.33229 -0.56864,-0.25834 -0.52522,-1.3125 z M 1177.2522,874.5 c 0.011,-2.2 0.2159,-2.98225 0.4551,-1.73834 0.2392,1.24391 0.2301,3.04391 -0.02,4 -0.2503,0.95609 -0.446,-0.0617 -0.4349,-2.26166 z M 106.07895,868.41667 c 0.048,-1.16495 0.28494,-1.4019 0.60416,-0.60417 0.28887,0.72187 0.25335,1.58438 -0.0789,1.91667 -0.3323,0.33229 -0.56864,-0.25834 -0.52522,-1.3125 z m 1070.99995,0 c 0.048,-1.16495 0.285,-1.4019 0.6042,-0.60417 0.2889,0.72187 0.2534,1.58438 -0.079,1.91667 -0.3323,0.33229 -0.5687,-0.25834 -0.5253,-1.3125 z M 970.25,866.28375 c 1.5125,-0.22913 3.9875,-0.22913 5.5,0 1.5125,0.22912 0.275,0.41659 -2.75,0.41659 -3.025,0 -4.2625,-0.18747 -2.75,-0.41659 z m 531.5179,-0.008 c 1.7974,-0.22256 4.4974,-0.21797 6,0.0102 1.5027,0.22818 0.032,0.41027 -3.2679,0.40466 -3.3,-0.006 -4.5294,-0.1923 -2.7321,-0.41486 z m -211.0402,-7.997 c 1.7752,-0.22091 4.9252,-0.22454 7,-0.008 2.0748,0.21648 0.6223,0.39722 -3.2277,0.40166 -3.85,0.004 -5.5475,-0.17268 -3.7723,-0.39359 z M 853.232,851 c 0,-1.925 0.2058,-2.7125 0.45733,-1.75 0.25152,0.9625 0.25152,2.5375 0,3.5 -0.25153,0.9625 -0.45733,0.175 -0.45733,-1.75 z m 323.8469,-5.58333 c 0.048,-1.16495 0.285,-1.4019 0.6042,-0.60417 0.2889,0.72187 0.2534,1.58438 -0.079,1.91667 -0.3323,0.33229 -0.5687,-0.25834 -0.5253,-1.3125 z m 325.7336,-2.09978 c 0.7219,-0.28887 1.5844,-0.25335 1.9167,0.0789 0.3323,0.33229 -0.2584,0.56864 -1.3125,0.52522 -1.165,-0.048 -1.4019,-0.28494 -0.6042,-0.60416 z M 877.29966,837 c 0,-3.025 0.18747,-4.2625 0.41659,-2.75 0.22913,1.5125 0.22913,3.9875 0,5.5 -0.22912,1.5125 -0.41659,0.275 -0.41659,-2.75 z m 22.51284,-55.68311 c 0.72187,-0.28887 1.58438,-0.25335 1.91667,0.0789 0.33229,0.33229 -0.25834,0.56864 -1.3125,0.52522 -1.16495,-0.048 -1.4019,-0.28494 -0.60417,-0.60416 z M 1391.4371,755.75 1388.5,752.5 l 3.25,2.93709 c 3.0295,2.73778 3.7097,3.56291 2.9371,3.56291 -0.1721,0 -1.6346,-1.4625 -3.25,-3.25 z M 771,753.62244 c 0,-0.20765 0.7875,-0.99515 1.75,-1.75 1.58606,-1.24387 1.62143,-1.2085 0.37756,0.37756 C 771.82119,753.91575 771,754.44548 771,753.62244 Z M 1394.3917,701 c 0,-7.425 0.1574,-10.4625 0.3499,-6.75 0.1924,3.7125 0.1924,9.7875 0,13.5 -0.1925,3.7125 -0.3499,0.675 -0.3499,-6.75 z M 465.07895,681.41667 c 0.048,-1.16495 0.28494,-1.4019 0.60416,-0.60417 0.28887,0.72187 0.25335,1.58438 -0.0789,1.91667 -0.33229,0.33229 -0.56864,-0.25834 -0.52522,-1.3125 z m 667.99995,0 c 0.048,-1.16495 0.285,-1.4019 0.6042,-0.60417 0.2889,0.72187 0.2534,1.58438 -0.079,1.91667 -0.3323,0.33229 -0.5687,-0.25834 -0.5253,-1.3125 z M 464.4897,475.5 c 2e-5,-103.95 0.11713,-146.32674 0.26025,-94.17054 0.14312,52.15621 0.14311,137.20621 -2e-5,189 -0.14314,51.7938 -0.26024,9.12054 -0.26023,-94.82946 z m 404.38274,174.75 c -1.24387,-1.58606 -1.2085,-1.62143 0.37756,-0.37756 0.9625,0.75485 1.75,1.54235 1.75,1.75 0,0.82304 -0.82119,0.29331 -2.12756,-1.37244 z m 478.43576,-4.99764 c 7.0445,-0.17214 18.2945,-0.17164 25,0.001 6.7055,0.17275 0.9418,0.31359 -12.8082,0.31298 -13.75,-6.1e-4 -19.2363,-0.14195 -12.1918,-0.31409 z m 165.9962,8.8e-4 c 5.9423,-0.17711 15.3923,-0.17644 21,10e-4 5.6076,0.17792 0.7456,0.32282 -10.8044,0.322 -11.55,-8.2e-4 -16.138,-0.14638 -10.1956,-0.32348 z M 605.49051,437 c 0,-113.025 0.11675,-159.2625 0.25944,-102.75 0.14269,56.5125 0.14269,148.9875 0,205.5 -0.14269,56.5125 -0.25944,10.275 -0.25944,-102.75 z m 260,-1 c 0,-113.025 0.11675,-159.2625 0.25944,-102.75 0.14269,56.5125 0.14269,148.9875 0,205.5 -0.14269,56.5125 -0.25944,10.275 -0.25944,-102.75 z m 127.89803,192.5 c 0.002,-7.15 0.16103,-9.94379 0.35396,-6.20841 0.19293,3.73537 0.19149,9.58537 -0.003,13 -0.19468,3.41462 -0.35253,0.35841 -0.35078,-6.79159 z M 222.5,634 c -0.33992,-0.55 -0.14148,-1 0.44098,-1 0.58246,0 1.05902,0.45 1.05902,1 0,0.55 -0.19844,1 -0.44098,1 -0.24254,0 -0.7191,-0.45 -1.05902,-1 z m 910.9405,-198 c 0,-15.675 0.1383,-22.0875 0.3072,-14.25 0.169,7.8375 0.169,20.6625 0,28.5 -0.1689,7.8375 -0.3072,1.425 -0.3072,-14.25 z M 992.38536,412 c 0,-6.875 0.15977,-9.6875 0.35504,-6.25 0.19527,3.4375 0.19527,9.0625 0,12.5 -0.19527,3.4375 -0.35504,0.625 -0.35504,-6.25 z M 329,287.05902 c 0,-0.51754 0.44485,-1.21592 0.98855,-1.55194 0.56686,-0.35034 0.7345,0.0511 0.39301,0.94098 C 329.71677,288.18048 329,288.49745 329,287.05902 Z M 1376.1579,281 c 0,-1.375 0.227,-1.9375 0.5044,-1.25 0.2774,0.6875 0.2774,1.8125 0,2.5 -0.2774,0.6875 -0.5044,0.125 -0.5044,-1.25 z M 205.38176,215.5 c 0.002,-6.6 0.16382,-9.16987 0.35965,-5.71081 0.19583,3.45905 0.19422,8.85905 -0.004,12 -0.19781,3.14094 -0.35803,0.31081 -0.35606,-6.28919 z m 400.02742,-32 c -10e-4,-9.35 0.14916,-13.3096 0.33401,-8.7991 0.18486,4.51049 0.1858,12.16049 0.002,17 -0.1837,4.8395 -0.33495,1.1491 -0.3361,-8.2009 z m 260,0 c -10e-4,-9.35 0.14916,-13.3096 0.33401,-8.7991 0.18486,4.51049 0.1858,12.16049 0.002,17 -0.1837,4.8395 -0.33495,1.1491 -0.3361,-8.2009 z m 125.94023,0.5 c 0,-4.675 0.17226,-6.5875 0.3828,-4.25 0.21053,2.3375 0.21053,6.1625 0,8.5 -0.21054,2.3375 -0.3828,0.425 -0.3828,-4.25 z M 605.07895,164.41667 c 0.048,-1.16495 0.28494,-1.4019 0.60416,-0.60417 0.28887,0.72187 0.25335,1.58437 -0.0789,1.91667 -0.33229,0.33229 -0.56864,-0.25834 -0.52522,-1.3125 z M 865.15789,164 c 0,-1.375 0.22698,-1.9375 0.50439,-1.25 0.27741,0.6875 0.27741,1.8125 0,2.5 -0.27741,0.6875 -0.50439,0.125 -0.50439,-1.25 z m 464.65461,-1.68311 c 0.7219,-0.28887 1.5844,-0.25335 1.9167,0.0789 0.3323,0.33229 -0.2584,0.56864 -1.3125,0.52522 -1.165,-0.048 -1.4019,-0.28494 -0.6042,-0.60416 z"
         id="path26" />
      <path
         style="fill:#333333;fill-opacity:1"
         d="M 77.645274,888.51798 C 77.290373,887.59313 77,874.49823 77,859.41821 V 832 h 12.818499 c 20.215151,0 26.270501,2.74219 27.743321,12.56371 0.85883,5.72704 -0.17348,11.04795 -2.6176,13.49207 C 113.8749,859.1251 113,860.17741 113,860.39424 c 0,0.21684 1.35,1.83943 3,3.60576 2.64237,2.82867 3,3.92594 3,9.20463 0,6.84247 -1.84112,11.39359 -5.78308,14.29537 -2.3958,1.76362 -4.62036,2.04134 -18.821646,2.34977 -14.36355,0.31195 -16.17449,0.16797 -16.75,-1.33179 z m 29.161936,-15.41077 c 0.16897,-2.96603 -0.11992,-5.81992 -0.64198,-6.34198 -0.52205,-0.52205 -4.2603,-0.995 -8.307207,-1.05101 L 90.5,865.6124 l -0.304022,5.83183 c -0.167213,3.2075 -0.112752,6.33221 0.121024,6.9438 0.285187,0.74608 3.017582,0.94745 8.304022,0.61197 L 106.5,878.5 Z M 105,848.91794 V 843 H 97.5 90 v 5.83333 c 0,3.20834 0.18559,6.02084 0.412423,6.25 0.226833,0.22917 3.601833,0.26724 7.5,0.0846 L 105,854.83588 Z m 91.66667,40.41539 C 196.3,888.96667 196,875.91667 196,860.33333 V 832 h 6.5 6.5 v 29 29 h -5.83333 c -3.20834,0 -6.13334,-0.3 -6.5,-0.66667 z m 99.37979,-0.50485 c -3.69116,-1.05934 -7.75632,-5.01181 -8.63476,-8.39541 -0.29514,-1.13681 -0.39601,-10.67089 -0.22416,-21.18685 l 0.31246,-19.11993 2.84668,-2.96877 C 294.01012,833.33694 299.49165,832 311.49272,832 h 9.60709 l -0.29991,5.75 -0.2999,5.75 -10.25,0.28498 -10.25,0.28499 V 861.53498 879 h 10.5 10.5 v 5.5 5.5 l -10.75,-0.0902 c -5.9125,-0.0496 -12.30409,-0.5362 -14.20354,-1.08133 z M 395,861 v -29 h 6.5 6.5 v 29 29 h -6.5 -6.5 z m 91,0.0523 v -29.05226 h 3.94424 c 5.5266,0 7.84221,2.48436 14.91321,16 3.30906,6.325 6.38234,11.5 6.82951,11.5 0.44717,0 3.96304,-6.22329 7.81304,-13.82953 l 7,-13.82953 3.98978,0.51654 C 537.91546,833.31884 538,833.67063 538,863.61078 V 890 h -6 -6 l -0.0318,-18.75 c -0.0363,-21.37718 0.13221,-21.22598 -7.24252,-6.5 -4.0881,8.1632 -4.17159,8.25 -7.93519,8.25 h -3.80363 l -4.74343,-9.55608 -4.74343,-9.55609 -0.5,17.80609 -0.5,17.80608 -5.25,0.30226 -5.25,0.30226 V 861.05226 Z M 615,861 v -29 h 17 17 v 5.5 5.5 H 638.5 628 l -10e-4,6.25 -10e-4,6.25 h 9.25145 9.25145 l 0.30226,5.25 0.30226,5.25 h -9.55226 -9.55226 v 6.5 6.5 h 10.5 10.5 v 5.5 5.5 h -17 -17 v -29 z m 108,0 v -29 h 4.30523 4.30523 L 743.55523,849.68951 755.5,867.37902 755.77307,849.68951 756.04615,832 H 761.52307 767 v 29 29 h -4.30977 c -4.28375,0 -4.3432,-0.0498 -9.84967,-8.25 C 738.00353,859.65479 735.44535,856.01456 734.75,856.00755 734.3375,856.0034 734,863.65 734,873 v 17 h -5.5 -5.5 z m 119.4454,27.71831 c -0.31827,-0.82939 -0.43618,-3.24281 -0.26203,-5.36315 L 842.5,879.5 l 12,-0.5 12,-0.5 0.29538,-5.59828 0.29537,-5.59829 -8.10322,-0.62487 c -9.59314,-0.73977 -12.62649,-2.01037 -15.7002,-6.57644 -3.08499,-4.58283 -3.26469,-15.98693 -0.32781,-20.80357 3.29351,-5.40155 6.97217,-6.62981 21.29048,-7.10865 L 877,831.76351 v 6.08651 6.08651 L 865.25,844.21826 853.5,844.5 v 5 5 l 8,0.61314 c 13.37415,1.02502 18.50164,5.92309 18.49845,17.67079 -0.002,6.58916 -2.1532,11.58724 -6.29539,14.62528 -2.43058,1.78268 -4.62297,2.10153 -16.73796,2.43424 -11.74375,0.32251 -14.03223,0.14517 -14.5197,-1.12514 z M 949.41793,888.25 c 0.30399,-0.9625 3.02493,-11.6851 6.04655,-23.828 3.02161,-12.1429 6.16096,-23.67464 6.97632,-25.62607 C 964.3783,834.15883 969.6187,832 978.93737,832 h 6.8969 l 1.14978,5.25 c 0.63238,2.8875 3.13461,14.925 5.56052,26.75 2.4259,11.825 4.65436,22.5125 4.95213,23.75 0.51533,2.14162 0.25521,2.25 -5.4001,2.25 -5.83019,0 -5.96034,-0.0609 -6.94757,-3.25 -0.55334,-1.7875 -1.30247,-4.72832 -1.66473,-6.53516 l -0.65866,-3.28516 -9.65181,0.28516 -9.65182,0.28516 -1.50694,6.25 -1.50693,6.25 h -5.82146 c -5.08813,0 -5.75183,-0.22045 -5.26875,-1.75 z m 30.91602,-22 c 0.24859,-0.4125 -0.45004,-5.5875 -1.55251,-11.5 -1.99579,-10.70336 -2.01694,-10.75 -4.87391,-10.75 -2.1626,0 -2.99116,0.55424 -3.36363,2.25 -0.27182,1.2375 -1.36688,6.06779 -2.43346,10.73398 -1.06659,4.66619 -1.72621,8.82869 -1.46583,9.25 0.61151,0.98945 13.09391,1.00405 13.68934,0.016 z M 1065,884.69913 v -5.58955 l 4.75,-0.30479 4.75,-0.30479 0.2684,-23.25 0.2685,-23.25 h 6.4815 6.4816 l -0.024,21.75 c -0.013,11.9625 -0.4321,23.5104 -0.9312,25.66199 -0.499,2.1516 -2.2135,5.21814 -3.8099,6.81455 -2.5482,2.54818 -3.8385,2.97333 -10.5688,3.48234 l -7.6662,0.5798 v -5.58955 z M 1165,861 v -29 h 17 17 v 5.46617 5.46617 l -10.75,0.28383 -10.75,0.28383 -0.062,5.75 -0.062,5.75 h 9.8121 9.8121 v 5.46379 5.46379 l -9.75,0.28621 -9.75,0.28621 v 6 6 l 11.25,0.28275 11.25,0.28275 V 884.53275 890 h -17.5 -17.5 v -29 z m 110,-0.10899 v -29.109 l 14.75,0.42542 c 21.0127,0.60604 24.1234,2.5466 25.7814,16.08328 0.8503,6.94293 -1.3533,14.00648 -5.4192,17.37067 l -2.6122,2.16139 2.108,2.33861 c 1.6992,1.88498 7.392,16.67041 7.392,19.19842 0,0.35211 -2.6556,0.6402 -5.9012,0.6402 h -5.9013 l -3.3953,-10.25 -3.3952,-10.25 -5.2035,-0.30226 L 1288,868.89548 V 879.44774 890 h -6.5 -6.5 z m 26.7993,-2.74584 c 0.9124,-0.57872 1.2102,-2.88243 1,-7.73469 L 1302.5,843.5 l -7.25,-0.29381 -7.25,-0.29381 V 850.95619 859 l 6.25,-0.0153 c 3.4375,-0.008 6.8347,-0.38621 7.5493,-0.83952 z M 1392,861 v -29 h 6.5 6.5 v 29 29 h -6.5 -6.5 z m 87,28.68911 c 0,-2.62682 13.1381,-51.25093 14.3459,-53.09433 2.0291,-3.09678 7.1355,-4.58193 15.7791,-4.5892 6.4221,-0.005 6.6427,0.0787 7.2038,2.74442 0.3183,1.5125 2.8609,13.775 5.6502,27.25 2.7893,13.475 5.3154,25.2875 5.6136,26.25 0.4784,1.54406 -0.2307,1.75 -6.0252,1.75 -5.9616,0 -6.5674,-0.18977 -6.5674,-2.05718 0,-1.13145 -0.5074,-4.07205 -1.1274,-6.53467 l -1.1275,-4.4775 -9.6194,0.28468 -9.6195,0.28467 -1.5833,6 -1.5832,6 -5.6699,0.2999 c -3.1184,0.16495 -5.6698,0.11509 -5.6698,-0.11079 z M 1510.3283,866.25 c 0.2456,-0.4125 -0.5154,-5.58935 -1.6909,-11.5041 -1.6146,-8.12364 -2.5633,-10.89119 -3.8785,-11.31455 -2.5695,-0.82715 -3.5779,0.18265 -4.8316,4.83878 -2.1197,7.87174 -3.8264,17.08412 -3.3176,17.90734 0.6358,1.02872 13.1103,1.09467 13.7186,0.0725 z M 1394,827.48068 c 0,-0.28562 1.2221,-3.66062 2.7159,-7.5 L 1399.4317,813 h 5.2842 c 2.9062,0 5.2841,0.31132 5.2841,0.69183 0,0.38051 -1.8201,3.75551 -4.0447,7.5 -3.9101,6.58167 -4.1762,6.80817 -8,6.80817 -2.1754,0 -3.9553,-0.23369 -3.9553,-0.51932 z M 560,780.90679 c -16.47029,-1.73246 -30.97358,-5.48912 -43,-11.13793 -16.62982,-7.81101 -31.32278,-22.71959 -39.34029,-39.91758 C 475.00326,724.15305 472,717.00354 472,716.37788 472,716.17004 544.225,716 632.5,716 c 91.12718,0 160.5,0.37845 160.5,0.87557 0,0.82247 -3.12232,8.22663 -6.79963,16.12443 -5.22879,11.22989 -18.15943,25.03086 -29.70037,31.69942 -8.20196,4.73924 -23.25581,10.89727 -30.15522,12.3355 -2.66463,0.55546 -8.21978,1.74063 -12.34478,2.63371 -6.4417,1.39466 -17.23633,1.65966 -76.5,1.87802 -37.95,0.13983 -72.825,-0.14811 -77.5,-0.63986 z m 334,0.12431 C 846.86363,776.89411 816.54576,755.4752 804.42737,717.75 803.89357,716.08823 812.01142,716 965.43261,716 1056.9879,716 1127,716.37885 1127,716.87427 c 0,2.38023 -6.329,17.48548 -8.0135,19.12573 -0.2824,0.275 -2.3074,3.14283 -4.5,6.37296 -11.9392,17.58899 -32.5256,29.56164 -62.4865,36.3409 l -11.5,2.60211 -69,0.23057 c -37.95,0.12682 -72.825,-0.10513 -77.5,-0.51544 z M 253.67852,772.34518 C 253.30533,771.972 253,759.13632 253,743.82145 v -27.84522 l 38.25,0.26189 38.25,0.26188 v 28 28 l -37.57148,0.26185 c -20.66432,0.14402 -37.87682,-0.0435 -38.25,-0.41667 z M 1331.5,772.31893 c -18.003,-1.15425 -41.0044,-5.05554 -56,-9.49819 -8.0854,-2.39542 -26.2933,-9.56199 -28.5,-11.21753 -0.825,-0.61893 -3.075,-1.9736 -5,-3.01038 -10.6079,-5.71325 -29.2376,-21.50028 -35.1196,-29.76083 L 1204.8638,716 h 82.4707 82.4707 l 2.1752,7.25 c 5.9786,19.92721 20.0391,36.49869 39.0196,45.98783 l 7.5,3.74957 -41,-0.17395 c -22.55,-0.0957 -43.25,-0.3182 -46,-0.49452 z m 147,-3.29413 c 28.081,-13.88719 44.121,-43.6293 40.7329,-75.52871 -1.8614,-17.52526 -7.7975,-30.72632 -19.5082,-43.38328 -2.0486,-2.21413 -3.7247,-4.24474 -3.7247,-4.51247 0,-0.26773 1.6875,-0.33299 3.75,-0.14501 2.0625,0.18797 12.8625,0.38742 24,0.44322 L 1544,646 v 63.5 63.5 l -36.75,-0.009 -36.75,-0.009 8,-3.95632 z M 219.96429,767.64067 C 219.15893,766.89304 205.45,757.55554 189.5,746.89067 173.55,736.2258 160.275,727.25263 160,726.9503 c -0.275,-0.30234 -5.37722,-3.67734 -11.33828,-7.5 -5.96105,-3.82267 -11.36105,-7.42978 -12,-8.01581 -0.63894,-0.58604 -4.19414,-3.09788 -7.90044,-5.58189 l -6.73872,-4.51637 13.73872,-9.3142 c 7.5563,-5.12281 22.06372,-14.94418 32.23872,-21.82525 10.175,-6.88108 26.01979,-17.62266 35.21064,-23.8702 9.19086,-6.24753 17.40336,-11.62496 18.25,-11.94985 C 222.8371,633.84853 223,640.94052 223,701.39301 223,738.57686 222.64643,769 222.21429,769 c -0.43215,0 -1.44465,-0.6117 -2.25,-1.35933 z M 1435.5,752.31638 c -4.9674,-1.12166 -15.7238,-5.69173 -19.8871,-8.4494 -6.5508,-4.33908 -13,-11.9183 -17.0789,-20.07171 L 1395,716.73129 v -14.82813 c 0,-12.50201 0.3186,-15.6576 2.0312,-20.11565 2.5981,-6.76309 9.0537,-15.05924 16.1757,-20.78751 12.8496,-10.33496 32.0299,-13.40521 47.7931,-7.65038 13.681,4.99466 24.428,15.26266 30.3822,29.02806 2.8687,6.63211 3.082,7.94825 3.0993,19.12232 0.017,10.98231 -0.2271,12.59365 -2.8774,19 -6.4291,15.54061 -19.352,26.63374 -36.0642,30.95788 -5.5954,1.44776 -15.5431,1.87392 -20.0399,0.8585 z M 253,643.40113 c 0,-37.38506 -0.20043,-43.02125 -1.63761,-46.04988 -3.19766,-6.73856 -13.6896,-9.38669 -21.15223,-5.33875 -2.04059,1.10687 -12.26016,7.80107 -22.71016,14.87601 l -19,12.86351 -0.25294,-166.57895 c -0.15821,-104.19089 -0.6108,-166.93681 -1.20844,-167.53445 -0.60732,-0.60732 1.73193,-2.52865 6.4197,-5.27276 16.96919,-9.93337 29.24972,-25.52802 35.13427,-44.61586 l 1.77265,-5.75 h 187.30803 187.30802 l 0.25935,207.25 c 0.25682,205.2172 0.27898,207.28322 2.25936,210.6369 1.1,1.8628 3.56798,4.2253 5.4844,5.25 3.27033,1.74864 6.66662,1.8631 55.28212,1.8631 56.38392,0 56.48447,-0.009 60.27908,-5.61357 1.91965,-2.8351 1.96329,-6.58508 2.4544,-210.88643 l 0.5,-208 66.73835,-0.25708 66.73834,-0.25709 0.26166,207.25709 c 0.2501,198.10504 0.34185,207.40406 2.07797,210.58566 1.12392,2.0597 3.41118,4.05268 6,5.22804 3.93775,1.7878 7.26985,1.90066 56.68368,1.91986 59.31484,0.0231 57.65579,0.22477 61.49306,-7.47648 1.70409,-3.42004 1.99407,-6.02986 2,-18 0.004,-7.7 -0.37095,-100.7375 -0.83281,-206.75 L 991.82049,230 h 70.45371 70.4537 l 0.7424,222.25 c 0.4083,122.2375 0.4177,224.8375 0.021,228 l -0.7215,5.75 H 799.5209 466.27205 l -0.63593,-4.63957 c -0.34975,-2.55177 -0.64281,-92.21427 -0.65123,-199.25 -0.008,-107.03574 -0.37447,-195.17615 -0.81344,-195.86758 -0.63057,-0.99323 -14.80096,-1.20316 -67.49935,-1 l -66.70123,0.25715 0.0219,200.25 0.0219,200.25 h -38.50722 -38.50723 v -42.59887 z m 932.8276,34.84627 c -3.6045,-10.44977 -5.5525,-19.73726 -7.334,-34.96689 C 1177.2271,632.45332 1177,605.69955 1177,467.29535 c 0,-101.46606 0.3789,-167.1097 1.0016,-173.50613 1.9179,-19.70315 8.467,-43.5592 15.9153,-57.97387 l 2.7465,-5.31535 75.1834,-0.25633 75.1834,-0.25633 -0.2651,29.25633 -0.2651,29.25633 -8.5,0.51294 c -9.1565,0.55256 -12.3717,2.04199 -15.4156,7.14135 -1.4291,2.39411 -1.5844,19.16603 -1.5844,171.10212 v 168.44782 l 2.2731,3.39789 c 4.2296,6.32225 8.0486,6.94218 40.9772,6.65159 15.8126,-0.13954 28.7499,-0.25371 28.7496,-0.25371 -4e-4,0 -2.4035,2.60216 -5.3403,5.78257 -5.8148,6.29728 -13.4214,19.86268 -16.2429,28.96743 l -1.7819,5.75 -90.5674,-0.003 -90.5674,-0.003 -2.6724,-7.7474 z m 243.3592,-393.56494 c 3.4723,-2.37464 16.6608,-11.26214 29.3078,-19.75 12.647,-8.48785 23.447,-15.7965 24,-16.24145 0.553,-0.44494 8.1599,-5.61994 16.9043,-11.5 8.7445,-5.88005 16.7948,-11.89499 17.8897,-13.36652 1.106,-1.48652 2.1754,-4.8195 2.4064,-7.5 0.6521,-7.56741 -1.6133,-10.77964 -12.695,-18.00069 -5.225,-3.40472 -9.95,-6.58109 -10.5,-7.0586 -0.55,-0.47751 -10,-6.86307 -21,-14.19015 -11,-7.32708 -20.4275,-13.7164 -20.95,-14.1985 C 1454.0047,162.3734 1472.8548,162 1498.8,162 h 45.2 v 63.5 63.5 h -60.5632 -60.5632 z M 49,223.5 V 162 h 25.995942 25.995938 l -4.920227,6.10595 c -5.21211,6.46817 -9.961914,15.50611 -13.345595,25.39405 -1.67827,4.90431 -2.068999,8.64791 -2.139638,20.5 -0.09952,16.6987 1.472351,23.448 8.733551,37.5 5.414279,10.47781 17.040019,22.39268 28.159119,28.85944 L 125.45818,285 H 87.229091 49 Z m 1328,-8.4821 v -67.9821 l 7.9159,5.2321 c 4.3537,2.87765 17.2912,11.56739 28.75,19.31052 11.4587,7.74313 30.0591,20.28351 41.3341,27.86751 11.275,7.584 21.0509,14.23165 21.7241,14.77256 0.8838,0.71002 -3.0087,3.82508 -14,11.20369 -32.7573,21.99057 -52.8769,35.67095 -75.3671,51.24603 -5.0287,3.48249 -9.4162,6.33179 -9.75,6.33179 -0.3339,0 -0.607,-30.59195 -0.607,-67.9821 z M 143.11233,264.48206 c -14.46348,-4.05779 -27.38938,-14.85781 -33.47477,-27.96928 -6.64479,-14.31674 -6.23258,-31.49843 1.10324,-45.98465 3.1063,-6.13408 13.06689,-16.18283 19.7592,-19.93407 26.28086,-14.73122 60.91683,-3.06219 72.02047,24.26405 C 204.75235,200.35078 205,202.36253 205,215 c 0,12.62587 -0.24894,14.65238 -2.47193,20.12321 -4.73315,11.64833 -15.75536,22.26805 -28.52807,27.4863 -8.19789,3.34922 -22.52776,4.21796 -30.88767,1.87255 z M 229.52122,198.75 c -0.22881,-0.6875 -1.05983,-3.50947 -1.84673,-6.27105 -2.21642,-7.7785 -7.50461,-17.86833 -12.82628,-24.47245 L 210.00812,162 H 407.50406 605 v 19 19 H 417.46862 c -149.13657,0 -187.61656,-0.25592 -187.9474,-1.25 z m 501.70671,-17.5 0.27207,-18.75 66.67952,-0.25706 66.67953,-0.25707 0.32047,2.25707 c 0.17627,1.24138 0.18746,9.79456 0.0249,19.00706 l -0.2956,16.75 h -66.97647 -66.97647 l 0.27206,-18.75 z m 260.4321,0.65092 c -0.36058,-9.95449 -0.40503,-18.50449 -0.0988,-19 C 991.88308,162.38016 1021.8416,162 1062.559,162 H 1133 v 19 19 h -70.3422 -70.34219 z m 233.45607,15.81748 c 5.0169,-4.25428 6.4263,-5.27089 12.8839,-9.29353 10.4162,-6.48851 21.2119,-11.25579 36,-15.89719 10.3927,-3.26187 13.9491,-4.10621 29.5,-7.00374 C 1311.7363,163.9893 1333.5519,162 1342.1452,162 H 1347 v 19 19 l -62.25,-0.0316 -62.25,-0.0316 z"
         id="path24" />
    </g>
  </g>
</svg>
